<svg width="75" height="75" viewBox="0 0 75 75" fill="none" xmlns="http://www.w3.org/2000/svg">
<g clip-path="url(#clip0_156_224)">
<path d="M26.2614 56.2363C24.1957 56.2363 22.5156 57.9178 22.5156 59.9853C22.5156 62.0527 24.1957 63.7342 26.2614 63.7342C28.327 63.7342 30.0071 62.0527 30.0071 59.9853C30.0071 57.9178 28.327 56.2363 26.2614 56.2363Z" fill="#1D1D1B"/>
<path d="M15.0123 44.9873C12.9467 44.9873 11.2666 46.6688 11.2666 48.7363C11.2666 50.8037 12.9467 52.4852 15.0123 52.4852C17.078 52.4852 18.7581 50.8037 18.7581 48.7363C18.7581 46.6688 17.078 44.9873 15.0123 44.9873Z" fill="#1D1D1B"/>
<path d="M3.74573 33.7363C1.68005 33.7363 0 35.4178 0 37.4853C0 39.5527 1.68005 41.2342 3.74573 41.2342C5.8114 41.2342 7.49145 39.5527 7.49145 37.4853C7.49145 35.4178 5.8114 33.7363 3.74573 33.7363Z" fill="#1D1D1B"/>
<path d="M37.5035 67.502C35.4379 67.502 33.7578 69.1835 33.7578 71.2509C33.7578 73.3184 35.4379 74.9999 37.5035 74.9999C39.5692 74.9999 41.2493 73.3184 41.2493 71.2509C41.2493 69.1835 39.5692 67.502 37.5035 67.502Z" fill="#1D1D1B"/>
<path d="M37.5035 56.2363C35.4379 56.2363 33.7578 57.9178 33.7578 59.9853C33.7578 62.0527 35.4379 63.7342 37.5035 63.7342C39.5692 63.7342 41.2493 62.0527 41.2493 59.9853C41.2493 57.9178 39.5692 56.2363 37.5035 56.2363Z" fill="#1D1D1B"/>
<path d="M48.7574 56.2363C46.6918 56.2363 45.0117 57.9178 45.0117 59.9853C45.0117 62.0527 46.6918 63.7342 48.7574 63.7342C50.8231 63.7342 52.5032 62.0527 52.5032 59.9853C52.5032 57.9178 50.8231 56.2363 48.7574 56.2363Z" fill="#1D1D1B"/>
<path d="M26.2614 45.0752C24.1957 45.0752 22.5156 46.7567 22.5156 48.8242C22.5156 50.8916 24.1957 52.5731 26.2614 52.5731C28.327 52.5731 30.0071 50.8916 30.0071 48.8242C30.0071 46.7567 28.327 45.0752 26.2614 45.0752Z" fill="#1D1D1B"/>
<path d="M37.5035 45.0752C35.4379 45.0752 33.7578 46.7567 33.7578 48.8242C33.7578 50.8916 35.4379 52.5731 37.5035 52.5731C39.5692 52.5731 41.2493 50.8916 41.2493 48.8242C41.2493 46.7567 39.5692 45.0752 37.5035 45.0752Z" fill="#1D1D1B"/>
<path d="M48.7574 45.0752C46.6918 45.0752 45.0117 46.7567 45.0117 48.8242C45.0117 50.8916 46.6918 52.5731 48.7574 52.5731C50.8231 52.5731 52.5032 50.8916 52.5032 48.8242C52.5032 46.7567 50.8231 45.0752 48.7574 45.0752Z" fill="#1D1D1B"/>
<path d="M60.0045 11.2783C57.9388 11.2783 56.2588 12.9598 56.2588 15.0273C56.2588 17.0947 57.9388 18.7762 60.0045 18.7762C62.0702 18.7762 63.7502 17.0947 63.7502 15.0273C63.7502 12.9598 62.0702 11.2783 60.0045 11.2783Z" fill="#1D1D1B"/>
<path d="M14.9742 11.2783C12.9086 11.2783 11.2285 12.9598 11.2285 15.0273C11.2285 17.0947 12.9086 18.7762 14.9742 18.7762C17.0399 18.7762 18.72 17.0947 18.72 15.0273C18.72 12.9598 17.0399 11.2783 14.9742 11.2783Z" fill="#1D1D1B"/>
<path d="M60.0045 22.5376C57.9388 22.5376 56.2588 24.2191 56.2588 26.2866C56.2588 28.354 57.9388 30.0355 60.0045 30.0355C62.0702 30.0355 63.7502 28.354 63.7502 26.2866C63.7502 24.2191 62.0702 22.5376 60.0045 22.5376Z" fill="#1D1D1B"/>
<path d="M14.9742 22.5376C12.9086 22.5376 11.2285 24.2191 11.2285 26.2866C11.2285 28.354 12.9086 30.0355 14.9742 30.0355C17.0399 30.0355 18.72 28.354 18.72 26.2866C18.72 24.2191 17.0399 22.5376 14.9742 22.5376Z" fill="#1D1D1B"/>
<path d="M37.5035 22.5376C35.4379 22.5376 33.7578 24.2191 33.7578 26.2866C33.7578 28.354 35.4379 30.0355 37.5035 30.0355C39.5692 30.0355 41.2493 28.354 41.2493 26.2866C41.2493 24.2191 39.5692 22.5376 37.5035 22.5376Z" fill="#1D1D1B"/>
<path d="M60.0045 33.7969C57.9388 33.7969 56.2588 35.4784 56.2588 37.5458C56.2588 39.6133 57.9388 41.2948 60.0045 41.2948C62.0702 41.2948 63.7502 39.6133 63.7502 37.5458C63.7502 35.4784 62.0702 33.7969 60.0045 33.7969Z" fill="#1D1D1B"/>
<path d="M48.7574 33.7969C46.6918 33.7969 45.0117 35.4784 45.0117 37.5458C45.0117 39.6133 46.6918 41.2948 48.7574 41.2948C50.8231 41.2948 52.5032 39.6133 52.5032 37.5458C52.5032 35.4784 50.8231 33.7969 48.7574 33.7969Z" fill="#1D1D1B"/>
<path d="M14.9742 33.7969C12.9086 33.7969 11.2285 35.4784 11.2285 37.5458C11.2285 39.6133 12.9086 41.2948 14.9742 41.2948C17.0399 41.2948 18.72 39.6133 18.72 37.5458C18.72 35.4784 17.0399 33.7969 14.9742 33.7969Z" fill="#1D1D1B"/>
<path d="M60.0045 0C57.9388 0 56.2588 1.6815 56.2588 3.74896C56.2588 5.81641 57.9388 7.49791 60.0045 7.49791C62.0702 7.49791 63.7502 5.81641 63.7502 3.74896C63.7502 1.6815 62.0702 0 60.0045 0Z" fill="#1D1D1B"/>
<path d="M48.7428 0C46.6771 0 44.9971 1.6815 44.9971 3.74896C44.9971 5.81641 46.6771 7.49791 48.7428 7.49791C50.8085 7.49791 52.4885 5.81641 52.4885 3.74896C52.4885 1.6815 50.8085 0 48.7428 0Z" fill="#1D1D1B"/>
<path d="M48.7428 11.2783C46.6771 11.2783 44.9971 12.9598 44.9971 15.0273C44.9971 17.0947 46.6771 18.7762 48.7428 18.7762C50.8085 18.7762 52.4885 17.0947 52.4885 15.0273C52.4885 12.9598 50.8085 11.2783 48.7428 11.2783Z" fill="#1D1D1B"/>
<path d="M26.2155 11.2783C24.1498 11.2783 22.4697 12.9598 22.4697 15.0273C22.4697 17.0947 24.1498 18.7762 26.2155 18.7762C28.2811 18.7762 29.9612 17.0947 29.9612 15.0273C29.9612 12.9598 28.2811 11.2783 26.2155 11.2783Z" fill="#1D1D1B"/>
<path d="M26.2155 33.7969C24.1498 33.7969 22.4697 35.4784 22.4697 37.5458C22.4697 39.6133 24.1498 41.2948 26.2155 41.2948C28.2811 41.2948 29.9612 39.6133 29.9612 37.5458C29.9612 35.4784 28.2811 33.7969 26.2155 33.7969Z" fill="#1D1D1B"/>
<path d="M37.5035 0C35.4379 0 33.7578 1.6815 33.7578 3.74896C33.7578 5.81641 35.4379 7.49791 37.5035 7.49791C39.5692 7.49791 41.2493 5.81641 41.2493 3.74896C41.2493 1.6815 39.5692 0 37.5035 0Z" fill="#1D1D1B"/>
<path d="M26.2155 0C24.1498 0 22.4697 1.6815 22.4697 3.74896C22.4697 5.81641 24.1498 7.49791 26.2155 7.49791C28.2811 7.49791 29.9612 5.81641 29.9612 3.74896C29.9612 1.6815 28.2811 0 26.2155 0Z" fill="#1D1D1B"/>
<path d="M14.9742 0C12.9086 0 11.2285 1.6815 11.2285 3.74896C11.2285 5.81641 12.9086 7.49791 14.9742 7.49791C17.0399 7.49791 18.72 5.81641 18.72 3.74896C18.72 1.6815 17.0399 0 14.9742 0Z" fill="#1D1D1B"/>
<path d="M60.0045 44.9707C57.9388 44.9707 56.2588 46.6522 56.2588 48.7197C56.2588 50.7871 57.9388 52.4686 60.0045 52.4686C62.0702 52.4686 63.7502 50.7871 63.7502 48.7197C63.7502 46.6522 62.0702 44.9707 60.0045 44.9707Z" fill="#1D1D1B"/>
<path d="M71.2545 33.7363C69.1888 33.7363 67.5088 35.4178 67.5088 37.4853C67.5088 39.5527 69.1888 41.2342 71.2545 41.2342C73.3202 41.2342 75.0002 39.5527 75.0002 37.4853C75.0002 35.4178 73.3202 33.7363 71.2545 33.7363Z" fill="#1D1D1B"/>
<path d="M71.2545 22.4707C69.1888 22.4707 67.5088 24.1522 67.5088 26.2197C67.5088 28.2871 69.1888 29.9686 71.2545 29.9686C73.3202 29.9686 75.0002 28.2871 75.0002 26.2197C75.0002 24.1522 73.3202 22.4707 71.2545 22.4707Z" fill="#1D1D1B"/>
<path d="M3.74573 22.4707C1.68005 22.4707 0 24.1522 0 26.2197C0 28.2871 1.68005 29.9686 3.74573 29.9686C5.8114 29.9686 7.49145 28.2871 7.49145 26.2197C7.49145 24.1522 5.8114 22.4707 3.74573 22.4707Z" fill="#1D1D1B"/>
<path d="M71.2545 11.2783C69.1888 11.2783 67.5088 12.9598 67.5088 15.0273C67.5088 17.0947 69.1888 18.7762 71.2545 18.7762C73.3202 18.7762 75.0002 17.0947 75.0002 15.0273C75.0002 12.9598 73.3202 11.2783 71.2545 11.2783Z" fill="#1D1D1B"/>
<path d="M3.74573 11.2783C1.68005 11.2783 0 12.9598 0 15.0273C0 17.0947 1.68005 18.7762 3.74573 18.7762C5.8114 18.7762 7.49145 17.0947 7.49145 15.0273C7.49145 12.9598 5.8114 11.2783 3.74573 11.2783Z" fill="#1D1D1B"/>
</g>
<defs>
<clipPath id="clip0_156_224">
<rect width="75" height="75" fill="white"/>
</clipPath>
</defs>
</svg>
