<svg width="75" height="64" viewBox="0 0 75 64" fill="none" xmlns="http://www.w3.org/2000/svg">
<g clip-path="url(#clip0_143_603)">
<path d="M26.2433 56.2573C24.1768 56.2573 22.4961 57.9381 22.4961 60.0046C22.4961 62.0712 24.1768 63.7519 26.2433 63.7519C28.3098 63.7519 29.9905 62.0712 29.9905 60.0046C29.9905 57.9381 28.3098 56.2573 26.2433 56.2573Z" fill="black"/>
<path d="M14.9903 56.2573C12.9239 56.2573 11.2432 57.9381 11.2432 60.0046C11.2432 62.0712 12.9239 63.7519 14.9903 63.7519C17.0568 63.7519 18.7375 62.0712 18.7375 60.0046C18.7375 57.9381 17.0568 56.2573 14.9903 56.2573Z" fill="black"/>
<path d="M3.74718 56.2573C1.68071 56.2573 0 57.9381 0 60.0046C0 62.0712 1.68071 63.7519 3.74718 63.7519C5.81366 63.7519 7.49437 62.0712 7.49437 60.0046C7.49437 57.9381 5.81366 56.2573 3.74718 56.2573Z" fill="black"/>
<path d="M26.2433 44.9951C24.1768 44.9951 22.4961 46.6759 22.4961 48.7424C22.4961 50.809 24.1768 52.4897 26.2433 52.4897C28.3098 52.4897 29.9905 50.809 29.9905 48.7424C29.9905 46.6759 28.3098 44.9951 26.2433 44.9951Z" fill="black"/>
<path d="M14.9903 44.9951C12.9239 44.9951 11.2432 46.6759 11.2432 48.7424C11.2432 50.809 12.9239 52.4897 14.9903 52.4897C17.0568 52.4897 18.7375 50.809 18.7375 48.7424C18.7375 46.6759 17.0568 44.9951 14.9903 44.9951Z" fill="black"/>
<path d="M3.74718 44.9951C1.68071 44.9951 0 46.6759 0 48.7424C0 50.809 1.68071 52.4897 3.74718 52.4897C5.81366 52.4897 7.49437 50.809 7.49437 48.7424C7.49437 46.6759 5.81366 44.9951 3.74718 44.9951Z" fill="black"/>
<path d="M14.9903 33.751C12.9239 33.751 11.2432 35.4317 11.2432 37.4983C11.2432 39.5648 12.9239 41.2456 14.9903 41.2456C17.0568 41.2456 18.7375 39.5648 18.7375 37.4983C18.7375 35.4317 17.0568 33.751 14.9903 33.751Z" fill="black"/>
<path d="M3.74718 33.751C1.68071 33.751 0 35.4317 0 37.4983C0 39.5648 1.68071 41.2456 3.74718 41.2456C5.81366 41.2456 7.49437 39.5648 7.49437 37.4983C7.49437 35.4317 5.81366 33.751 3.74718 33.751Z" fill="black"/>
<path d="M26.2433 22.5068C24.1768 22.5068 22.4961 24.1876 22.4961 26.2541C22.4961 28.3207 24.1768 30.0014 26.2433 30.0014C28.3098 30.0014 29.9905 28.3207 29.9905 26.2541C29.9905 24.1876 28.3098 22.5068 26.2433 22.5068Z" fill="black"/>
<path d="M3.74718 22.5068C1.68071 22.5068 0 24.1876 0 26.2541C0 28.3207 1.68071 30.0014 3.74718 30.0014C5.81366 30.0014 7.49437 28.3207 7.49437 26.2541C7.49437 24.1876 5.81366 22.5068 3.74718 22.5068Z" fill="black"/>
<path d="M26.2433 11.2441C24.1768 11.2441 22.4961 12.9249 22.4961 14.9914C22.4961 17.058 24.1768 18.7387 26.2433 18.7387C28.3098 18.7387 29.9905 17.058 29.9905 14.9914C29.9905 12.9249 28.3098 11.2441 26.2433 11.2441Z" fill="black"/>
<path d="M14.9903 0C12.9239 0 11.2432 1.68076 11.2432 3.7473C11.2432 5.81384 12.9239 7.4946 14.9903 7.4946C17.0568 7.4946 18.7375 5.81384 18.7375 3.7473C18.7375 1.68076 17.0568 0 14.9903 0Z" fill="black"/>
<path d="M14.9679 11.2441C12.9014 11.2441 11.2207 12.9249 11.2207 14.9914C11.2207 17.058 12.9014 18.7387 14.9679 18.7387C17.0344 18.7387 18.7151 17.058 18.7151 14.9914C18.7151 12.9249 17.0344 11.2441 14.9679 11.2441Z" fill="black"/>
<path d="M26.214 0C24.1475 0 22.4668 1.68076 22.4668 3.7473C22.4668 5.81384 24.1475 7.4946 26.214 7.4946C28.2805 7.4946 29.9612 5.81384 29.9612 3.7473C29.9612 1.68076 28.2784 0 26.214 0Z" fill="black"/>
<path d="M3.74718 0C1.68071 0 0 1.68076 0 3.7473C0 5.81384 1.68071 7.4946 3.74718 7.4946C5.81366 7.4946 7.49437 5.81384 7.49437 3.7473C7.49437 1.68076 5.81366 0 3.74718 0Z" fill="black"/>
<path d="M37.4972 56.2573C35.4307 56.2573 33.75 57.9381 33.75 60.0046C33.75 62.0712 35.4307 63.7519 37.4972 63.7519C39.5637 63.7519 41.2444 62.0712 41.2444 60.0046C41.2444 57.9381 39.5637 56.2573 37.4972 56.2573Z" fill="black"/>
<path d="M37.4972 33.751C35.4307 33.751 33.75 35.4317 33.75 37.4983C33.75 39.5648 35.4307 41.2456 37.4972 41.2456C39.5637 41.2456 41.2444 39.5648 41.2444 37.4983C41.2444 35.4317 39.5637 33.751 37.4972 33.751Z" fill="black"/>
<path d="M37.4972 22.5068C35.4307 22.5068 33.75 24.1876 33.75 26.2541C33.75 28.3207 35.4307 30.0014 37.4972 30.0014C39.5637 30.0014 41.2444 28.3207 41.2444 26.2541C41.2444 24.1876 39.5637 22.5068 37.4972 22.5068Z" fill="black"/>
<path d="M37.4972 11.2441C35.4307 11.2441 33.75 12.9249 33.75 14.9914C33.75 17.058 35.4307 18.7387 37.4972 18.7387C39.5637 18.7387 41.2444 17.058 41.2444 14.9914C41.2444 12.9249 39.5637 11.2441 37.4972 11.2441Z" fill="black"/>
<path d="M37.4972 0C35.4307 0 33.75 1.68076 33.75 3.7473C33.75 5.81384 35.4307 7.4946 37.4972 7.4946C39.5637 7.4946 41.2444 5.81384 41.2444 3.7473C41.2444 1.68076 39.5637 0 37.4972 0Z" fill="black"/>
<path d="M60.0011 56.2573C57.9346 56.2573 56.2539 57.9381 56.2539 60.0046C56.2539 62.0712 57.9346 63.7519 60.0011 63.7519C62.0676 63.7519 63.7483 62.0712 63.7483 60.0046C63.7483 57.9381 62.0676 56.2573 60.0011 56.2573Z" fill="black"/>
<path d="M48.7491 56.2573C46.6827 56.2573 45.002 57.9381 45.002 60.0046C45.002 62.0712 46.6827 63.7519 48.7491 63.7519C50.8156 63.7519 52.4963 62.0712 52.4963 60.0046C52.4963 57.9381 50.8156 56.2573 48.7491 56.2573Z" fill="black"/>
<path d="M60.0011 44.9951C57.9346 44.9951 56.2539 46.6759 56.2539 48.7424C56.2539 50.809 57.9346 52.4897 60.0011 52.4897C62.0676 52.4897 63.7483 50.809 63.7483 48.7424C63.7483 46.6759 62.0676 44.9951 60.0011 44.9951Z" fill="black"/>
<path d="M48.7491 44.9966C46.6827 44.9966 45.002 46.6773 45.002 48.7439C45.002 50.8104 46.6827 52.4912 48.7491 52.4912C50.8156 52.4912 52.4963 50.8104 52.4963 48.7439C52.4963 46.6773 50.8156 44.9966 48.7491 44.9966Z" fill="black"/>
<path d="M60.0011 33.7363C57.9346 33.7363 56.2539 35.4171 56.2539 37.4836C56.2539 39.5502 57.9346 41.2309 60.0011 41.2309C62.0676 41.2309 63.7483 39.5502 63.7483 37.4836C63.7483 35.4171 62.0676 33.7363 60.0011 33.7363Z" fill="black"/>
<path d="M48.7491 22.5068C46.6827 22.5068 45.002 24.1876 45.002 26.2541C45.002 28.3207 46.6827 30.0014 48.7491 30.0014C50.8156 30.0014 52.4963 28.3207 52.4963 26.2541C52.4963 24.1876 50.8156 22.5068 48.7491 22.5068Z" fill="black"/>
<path d="M60.0011 11.2441C57.9346 11.2441 56.2539 12.9249 56.2539 14.9914C56.2539 17.058 57.9346 18.7387 60.0011 18.7387C62.0676 18.7387 63.7483 17.058 63.7483 14.9914C63.7483 12.9249 62.0676 11.2441 60.0011 11.2441Z" fill="black"/>
<path d="M48.7491 11.2441C46.6827 11.2441 45.002 12.9249 45.002 14.9914C45.002 17.058 46.6827 18.7387 48.7491 18.7387C50.8156 18.7387 52.4963 17.058 52.4963 14.9914C52.4963 12.9249 50.8156 11.2441 48.7491 11.2441Z" fill="black"/>
<path d="M60.0011 0C57.9346 0 56.2539 1.68076 56.2539 3.7473C56.2539 5.81384 57.9346 7.4946 60.0011 7.4946C62.0676 7.4946 63.7483 5.81384 63.7483 3.7473C63.7483 1.68076 62.0676 0 60.0011 0Z" fill="black"/>
<path d="M48.7491 0C46.6827 0 45.002 1.68076 45.002 3.7473C45.002 5.81384 46.6827 7.4946 48.7491 7.4946C50.8156 7.4946 52.4963 5.81384 52.4963 3.7473C52.4963 1.68076 50.8156 0 48.7491 0Z" fill="black"/>
<path d="M71.255 56.2573C69.1885 56.2573 67.5078 57.9381 67.5078 60.0046C67.5078 62.0712 69.1885 63.7519 71.255 63.7519C73.3215 63.7519 75.0022 62.0712 75.0022 60.0046C75.0022 57.9381 73.3215 56.2573 71.255 56.2573Z" fill="black"/>
<path d="M71.255 44.9951C69.1885 44.9951 67.5078 46.6759 67.5078 48.7424C67.5078 50.809 69.1885 52.4897 71.255 52.4897C73.3215 52.4897 75.0022 50.809 75.0022 48.7424C75.0022 46.6759 73.3215 44.9951 71.255 44.9951Z" fill="black"/>
<path d="M71.255 33.751C69.1885 33.751 67.5078 35.4317 67.5078 37.4983C67.5078 39.5648 69.1885 41.2456 71.255 41.2456C73.3215 41.2456 75.0022 39.5648 75.0022 37.4983C75.0022 35.4317 73.3215 33.751 71.255 33.751Z" fill="black"/>
<path d="M71.255 22.5068C69.1885 22.5068 67.5078 24.1876 67.5078 26.2541C67.5078 28.3207 69.1885 30.0014 71.255 30.0014C73.3215 30.0014 75.0022 28.3207 75.0022 26.2541C75.0022 24.1876 73.3215 22.5068 71.255 22.5068Z" fill="black"/>
<path d="M71.255 0C69.1885 0 67.5078 1.68076 67.5078 3.7473C67.5078 5.81384 69.1885 7.4946 71.255 7.4946C73.3215 7.4946 75.0022 5.81384 75.0022 3.7473C75.0022 1.68076 73.3194 0 71.255 0Z" fill="black"/>
</g>
<defs>
<clipPath id="clip0_143_603">
<rect width="75" height="63.75" fill="white"/>
</clipPath>
</defs>
</svg>
