<svg width="75" height="75" viewBox="0 0 75 75" fill="none" xmlns="http://www.w3.org/2000/svg">
<g clip-path="url(#clip0_143_490)">
<g clip-path="url(#clip1_143_490)">
<path d="M26.2433 67.5049C24.1768 67.5049 22.4961 69.1857 22.4961 71.2524C22.4961 73.319 24.1768 74.9999 26.2433 74.9999C28.3098 74.9999 29.9905 73.319 29.9905 71.2524C29.9905 69.1857 28.3098 67.5049 26.2433 67.5049Z" fill="black"/>
<path d="M26.2433 56.2437C24.1768 56.2437 22.4961 57.9245 22.4961 59.9912C22.4961 62.0578 24.1768 63.7386 26.2433 63.7386C28.3098 63.7386 29.9905 62.0578 29.9905 59.9912C29.9905 57.9245 28.3098 56.2437 26.2433 56.2437Z" fill="black"/>
<path d="M14.9903 56.2437C12.9239 56.2437 11.2432 57.9245 11.2432 59.9912C11.2432 62.0578 12.9239 63.7386 14.9903 63.7386C17.0568 63.7386 18.7375 62.0578 18.7375 59.9912C18.7375 57.9245 17.0568 56.2437 14.9903 56.2437Z" fill="black"/>
<path d="M14.9903 44.9971C12.9239 44.9971 11.2432 46.6779 11.2432 48.7446C11.2432 50.8112 12.9239 52.4921 14.9903 52.4921C17.0568 52.4921 18.7375 50.8112 18.7375 48.7446C18.7375 46.6779 17.0568 44.9971 14.9903 44.9971Z" fill="black"/>
<path d="M3.74718 44.9971C1.68071 44.9971 0 46.6779 0 48.7446C0 50.8112 1.68071 52.4921 3.74718 52.4921C5.81366 52.4921 7.49437 50.8112 7.49437 48.7446C7.49437 46.6779 5.81366 44.9971 3.74718 44.9971Z" fill="black"/>
<path d="M37.5402 33.7524C35.4737 33.7524 33.793 35.4333 33.793 37.4999C33.793 39.5666 35.4737 41.2474 37.5402 41.2474C39.6066 41.2474 41.2873 39.5666 41.2873 37.4999C41.2873 35.4333 39.6066 33.7524 37.5402 33.7524Z" fill="black"/>
<path d="M3.74718 33.7524C1.68071 33.7524 0 35.4333 0 37.4999C0 39.5666 1.68071 41.2474 3.74718 41.2474C5.81366 41.2474 7.49437 39.5666 7.49437 37.4999C7.49437 35.4333 5.81366 33.7524 3.74718 33.7524Z" fill="black"/>
<path d="M3.74718 22.4912C1.68071 22.4912 0 24.1721 0 26.2387C0 28.3054 1.68071 29.9862 3.74718 29.9862C5.81366 29.9862 7.49437 28.3054 7.49437 26.2387C7.49437 24.1721 5.81366 22.4912 3.74718 22.4912Z" fill="black"/>
<path d="M14.9903 11.2446C12.9239 11.2446 11.2432 12.9255 11.2432 14.9921C11.2432 17.0588 12.9239 18.7396 14.9903 18.7396C17.0568 18.7396 18.7375 17.0588 18.7375 14.9921C18.7375 12.9255 17.0568 11.2446 14.9903 11.2446Z" fill="black"/>
<path d="M14.9679 22.4912C12.9014 22.4912 11.2207 24.1721 11.2207 26.2387C11.2207 28.3054 12.9014 29.9862 14.9679 29.9862C17.0344 29.9862 18.7151 28.3054 18.7151 26.2387C18.7151 24.1721 17.0344 22.4912 14.9679 22.4912Z" fill="black"/>
<path d="M26.214 11.2446C24.1475 11.2446 22.4668 12.9255 22.4668 14.9921C22.4668 17.0588 24.1475 18.7396 26.214 18.7396C28.2805 18.7396 29.9612 17.0588 29.9612 14.9921C29.9612 12.9255 28.2805 11.2446 26.214 11.2446Z" fill="black"/>
<path d="M26.2433 0C24.1768 0 22.4961 1.68085 22.4961 3.7475C22.4961 5.81415 24.1768 7.49499 26.2433 7.49499C28.3098 7.49499 29.9905 5.81415 29.9905 3.7475C29.9905 1.68085 28.3098 0 26.2433 0Z" fill="black"/>
<path d="M37.4972 67.5049C35.4307 67.5049 33.75 69.1857 33.75 71.2524C33.75 73.319 35.4307 74.9999 37.4972 74.9999C39.5637 74.9999 41.2444 73.319 41.2444 71.2524C41.2444 69.1857 39.5637 67.5049 37.4972 67.5049Z" fill="black"/>
<path d="M37.4972 56.2437C35.4307 56.2437 33.75 57.9245 33.75 59.9912C33.75 62.0578 35.4307 63.7386 37.4972 63.7386C39.5637 63.7386 41.2444 62.0578 41.2444 59.9912C41.2444 57.9245 39.5637 56.2437 37.4972 56.2437Z" fill="black"/>
<path d="M37.4972 11.2446C35.4307 11.2446 33.75 12.9255 33.75 14.9921C33.75 17.0588 35.4307 18.7396 37.4972 18.7396C39.5637 18.7396 41.2444 17.0588 41.2444 14.9921C41.2444 12.9255 39.5637 11.2446 37.4972 11.2446Z" fill="black"/>
<path d="M37.4972 0C35.4307 0 33.75 1.68085 33.75 3.7475C33.75 5.81415 35.4307 7.49499 37.4972 7.49499C39.5637 7.49499 41.2444 5.81415 41.2444 3.7475C41.2444 1.68085 39.5637 0 37.4972 0Z" fill="black"/>
<path d="M48.7491 67.5049C46.6827 67.5049 45.002 69.1857 45.002 71.2524C45.002 73.319 46.6827 74.9999 48.7491 74.9999C50.8156 74.9999 52.4963 73.319 52.4963 71.2524C52.4963 69.1857 50.8156 67.5049 48.7491 67.5049Z" fill="black"/>
<path d="M60.0011 56.2437C57.9346 56.2437 56.2539 57.9245 56.2539 59.9912C56.2539 62.0578 57.9346 63.7386 60.0011 63.7386C62.0676 63.7386 63.7483 62.0578 63.7483 59.9912C63.7483 57.9245 62.0676 56.2437 60.0011 56.2437Z" fill="black"/>
<path d="M48.7491 56.2437C46.6827 56.2437 45.002 57.9245 45.002 59.9912C45.002 62.0578 46.6827 63.7386 48.7491 63.7386C50.8156 63.7386 52.4963 62.0578 52.4963 59.9912C52.4963 57.9245 50.8156 56.2437 48.7491 56.2437Z" fill="black"/>
<path d="M60.0011 44.9824C57.9346 44.9824 56.2539 46.6633 56.2539 48.7299C56.2539 50.7966 57.9346 52.4774 60.0011 52.4774C62.0676 52.4774 63.7483 50.7966 63.7483 48.7299C63.7483 46.6633 62.0676 44.9824 60.0011 44.9824Z" fill="black"/>
<path d="M60.0011 22.4912C57.9346 22.4912 56.2539 24.1721 56.2539 26.2387C56.2539 28.3054 57.9346 29.9862 60.0011 29.9862C62.0676 29.9862 63.7483 28.3054 63.7483 26.2387C63.7483 24.1721 62.0676 22.4912 60.0011 22.4912Z" fill="black"/>
<path d="M60.0011 11.2446C57.9346 11.2446 56.2539 12.9255 56.2539 14.9921C56.2539 17.0588 57.9346 18.7396 60.0011 18.7396C62.0676 18.7396 63.7483 17.0588 63.7483 14.9921C63.7483 12.9255 62.0676 11.2446 60.0011 11.2446Z" fill="black"/>
<path d="M48.7491 11.2446C46.6827 11.2446 45.002 12.9255 45.002 14.9921C45.002 17.0588 46.6827 18.7396 48.7491 18.7396C50.8156 18.7396 52.4963 17.0588 52.4963 14.9921C52.4963 12.9255 50.8156 11.2446 48.7491 11.2446Z" fill="black"/>
<path d="M71.255 44.9971C69.1885 44.9971 67.5078 46.6779 67.5078 48.7446C67.5078 50.8112 69.1885 52.4921 71.255 52.4921C73.3215 52.4921 75.0022 50.8112 75.0022 48.7446C75.0022 46.6779 73.3215 44.9971 71.255 44.9971Z" fill="black"/>
<path d="M71.255 33.7524C69.1885 33.7524 67.5078 35.4333 67.5078 37.4999C67.5078 39.5666 69.1885 41.2474 71.255 41.2474C73.3215 41.2474 75.0022 39.5666 75.0022 37.4999C75.0022 35.4333 73.3215 33.7524 71.255 33.7524Z" fill="black"/>
<path d="M71.255 22.4912C69.1885 22.4912 67.5078 24.1721 67.5078 26.2387C67.5078 28.3054 69.1885 29.9862 71.255 29.9862C73.3215 29.9862 75.0022 28.3054 75.0022 26.2387C75.0022 24.1721 73.3215 22.4912 71.255 22.4912Z" fill="black"/>
<path d="M48.7491 0C46.6827 0 45.002 1.68085 45.002 3.7475C45.002 5.81415 46.6827 7.49499 48.7491 7.49499C50.8156 7.49499 52.4963 5.81415 52.4963 3.7475C52.4963 1.68085 50.8156 0 48.7491 0Z" fill="black"/>
</g>
</g>
<defs>
<clipPath id="clip0_143_490">
<rect width="75" height="75" fill="white"/>
</clipPath>
<clipPath id="clip1_143_490">
<rect width="75" height="75" fill="white"/>
</clipPath>
</defs>
</svg>
