<svg width="75" height="75" viewBox="0 0 75 75" fill="none" xmlns="http://www.w3.org/2000/svg">
<g clip-path="url(#clip0_143_768)">
<g clip-path="url(#clip1_143_768)">
<path d="M26.2433 56.2627C24.1768 56.2627 22.4961 57.9418 22.4961 60.0063C22.4961 62.0708 24.1768 63.7499 26.2433 63.7499C28.3098 63.7499 29.9905 62.0708 29.9905 60.0063C29.9905 57.9418 28.3098 56.2627 26.2433 56.2627Z" fill="black"/>
<path d="M14.9903 56.2627C12.9239 56.2627 11.2432 57.9418 11.2432 60.0063C11.2432 62.0708 12.9239 63.7499 14.9903 63.7499C17.0568 63.7499 18.7375 62.0708 18.7375 60.0063C18.7375 57.9418 17.0568 56.2627 14.9903 56.2627Z" fill="black"/>
<path d="M26.2433 45.0303C24.1768 45.0303 22.4961 46.7094 22.4961 48.7739C22.4961 50.8384 24.1768 52.5175 26.2433 52.5175C28.3098 52.5175 29.9905 50.8384 29.9905 48.7739C29.9905 46.7094 28.3098 45.0303 26.2433 45.0303Z" fill="black"/>
<path d="M14.9903 45.0303C12.9239 45.0303 11.2432 46.7094 11.2432 48.7739C11.2432 50.8384 12.9239 52.5175 14.9903 52.5175C17.0568 52.5175 18.7375 50.8384 18.7375 48.7739C18.7375 46.7094 17.0568 45.0303 14.9903 45.0303Z" fill="black"/>
<path d="M3.74718 45.0303C1.68071 45.0303 0 46.7094 0 48.7739C0 50.8384 1.68071 52.5175 3.74718 52.5175C5.81366 52.5175 7.49437 50.8384 7.49437 48.7739C7.49437 46.7094 5.81366 45.0303 3.74718 45.0303Z" fill="black"/>
<path d="M26.2433 33.7803C24.1768 33.7803 22.4961 35.4594 22.4961 37.5239C22.4961 39.5884 24.1768 41.2675 26.2433 41.2675C28.3098 41.2675 29.9905 39.5884 29.9905 37.5239C29.9905 35.4594 28.3098 33.7803 26.2433 33.7803Z" fill="black"/>
<path d="M3.74718 33.7803C1.68071 33.7803 0 35.4594 0 37.5239C0 39.5884 1.68071 41.2675 3.74718 41.2675C5.81366 41.2675 7.49437 39.5884 7.49437 37.5239C7.49437 35.4594 5.81366 33.7803 3.74718 33.7803Z" fill="black"/>
<path d="M14.9903 22.5454C12.9239 22.5454 11.2432 24.2245 11.2432 26.289C11.2432 28.3535 12.9239 30.0326 14.9903 30.0326C17.0568 30.0326 18.7375 28.3535 18.7375 26.289C18.7375 24.2245 17.0568 22.5454 14.9903 22.5454Z" fill="black"/>
<path d="M14.9679 33.7803C12.9014 33.7803 11.2207 35.4594 11.2207 37.5239C11.2207 39.5884 12.9014 41.2675 14.9679 41.2675C17.0344 41.2675 18.7151 39.5884 18.7151 37.5239C18.7151 35.4594 17.0344 33.7803 14.9679 33.7803Z" fill="black"/>
<path d="M26.214 22.5454C24.1475 22.5454 22.4668 24.2245 22.4668 26.289C22.4668 28.3535 24.1475 30.0326 26.214 30.0326C28.2805 30.0326 29.9612 28.3535 29.9612 26.289C29.9612 24.2245 28.2805 22.5454 26.214 22.5454Z" fill="black"/>
<path d="M3.74718 22.5454C1.68071 22.5454 0 24.2245 0 26.289C0 28.3535 1.68071 30.0326 3.74718 30.0326C5.81366 30.0326 7.49437 28.3535 7.49437 26.289C7.49437 24.2245 5.81366 22.5454 3.74718 22.5454Z" fill="black"/>
<path d="M26.2433 11.3125C24.1768 11.3125 22.4961 12.9916 22.4961 15.0561C22.4961 17.1206 24.1768 18.7997 26.2433 18.7997C28.3098 18.7997 29.9905 17.1206 29.9905 15.0561C29.9905 12.9916 28.3098 11.3125 26.2433 11.3125Z" fill="black"/>
<path d="M37.4972 56.2627C35.4307 56.2627 33.75 57.9418 33.75 60.0063C33.75 62.0708 35.4307 63.7499 37.4972 63.7499C39.5637 63.7499 41.2444 62.0708 41.2444 60.0063C41.2444 57.9418 39.5637 56.2627 37.4972 56.2627Z" fill="black"/>
<path d="M37.4972 45.0303C35.4307 45.0303 33.75 46.7094 33.75 48.7739C33.75 50.8384 35.4307 52.5175 37.4972 52.5175C39.5637 52.5175 41.2444 50.8384 41.2444 48.7739C41.2444 46.7094 39.5637 45.0303 37.4972 45.0303Z" fill="black"/>
<path d="M37.4972 33.7803C35.4307 33.7803 33.75 35.4594 33.75 37.5239C33.75 39.5884 35.4307 41.2675 37.4972 41.2675C39.5637 41.2675 41.2444 39.5884 41.2444 37.5239C41.2444 35.4594 39.5637 33.7803 37.4972 33.7803Z" fill="black"/>
<path d="M37.4972 22.5454C35.4307 22.5454 33.75 24.2245 33.75 26.289C33.75 28.3535 35.4307 30.0326 37.4972 30.0326C39.5637 30.0326 41.2444 28.3535 41.2444 26.289C41.2444 24.2245 39.5637 22.5454 37.4972 22.5454Z" fill="black"/>
<path d="M37.4972 11.3125C35.4307 11.3125 33.75 12.9916 33.75 15.0561C33.75 17.1206 35.4307 18.7997 37.4972 18.7997C39.5637 18.7997 41.2444 17.1206 41.2444 15.0561C41.2444 12.9916 39.5637 11.3125 37.4972 11.3125Z" fill="black"/>
<path d="M14.9903 11.3125C12.9239 11.3125 11.2432 12.9916 11.2432 15.0561C11.2432 17.1206 12.9239 18.7997 14.9903 18.7997C17.0568 18.7997 18.7375 17.1206 18.7375 15.0561C18.7375 12.9916 17.0568 11.3125 14.9903 11.3125Z" fill="black"/>
<path d="M60.0011 45.0303C57.9346 45.0303 56.2539 46.7094 56.2539 48.7739C56.2539 50.8384 57.9346 52.5175 60.0011 52.5175C62.0676 52.5175 63.7483 50.8384 63.7483 48.7739C63.7483 46.7094 62.0676 45.0303 60.0011 45.0303Z" fill="black"/>
<path d="M48.7491 45.0303C46.6827 45.0303 45.002 46.7094 45.002 48.7739C45.002 50.8384 46.6827 52.5175 48.7491 52.5175C50.8156 52.5175 52.4963 50.8384 52.4963 48.7739C52.4963 46.7094 50.8156 45.0303 48.7491 45.0303Z" fill="black"/>
<path d="M60.0011 33.7803C57.9346 33.7803 56.2539 35.4594 56.2539 37.5239C56.2539 39.5884 57.9346 41.2675 60.0011 41.2675C62.0676 41.2675 63.7483 39.5884 63.7483 37.5239C63.7483 35.4594 62.0676 33.7803 60.0011 33.7803Z" fill="black"/>
<path d="M48.7491 33.7803C46.6827 33.7803 45.002 35.4594 45.002 37.5239C45.002 39.5884 46.6827 41.2675 48.7491 41.2675C50.8156 41.2675 52.4963 39.5884 52.4963 37.5239C52.4963 35.4594 50.8156 33.7803 48.7491 33.7803Z" fill="black"/>
<path d="M60.0011 22.5454C57.9346 22.5454 56.2539 24.2245 56.2539 26.289C56.2539 28.3535 57.9346 30.0326 60.0011 30.0326C62.0676 30.0326 63.7483 28.3535 63.7483 26.289C63.7483 24.2245 62.0676 22.5454 60.0011 22.5454Z" fill="black"/>
<path d="M60.0011 11.25C57.9346 11.25 56.2539 12.9291 56.2539 14.9936C56.2539 17.0581 57.9346 18.7372 60.0011 18.7372C62.0676 18.7372 63.7483 17.0581 63.7483 14.9936C63.7483 12.9291 62.0676 11.25 60.0011 11.25Z" fill="black"/>
<path d="M71.2403 22.5454C69.1739 22.5454 67.4932 24.2245 67.4932 26.289C67.4932 28.3535 69.1739 30.0326 71.2403 30.0326C73.3068 30.0326 74.9875 28.3535 74.9875 26.289C74.9875 24.2245 73.3068 22.5454 71.2403 22.5454Z" fill="black"/>
<path d="M48.7491 22.5454C46.6827 22.5454 45.002 24.2245 45.002 26.289C45.002 28.3535 46.6827 30.0326 48.7491 30.0326C50.8156 30.0326 52.4963 28.3535 52.4963 26.289C52.4963 24.2245 50.8156 22.5454 48.7491 22.5454Z" fill="black"/>
<path d="M71.255 33.7803C69.1885 33.7803 67.5078 35.4594 67.5078 37.5239C67.5078 39.5884 69.1885 41.2675 71.255 41.2675C73.3215 41.2675 75.0022 39.5884 75.0022 37.5239C75.0022 35.4594 73.3215 33.7803 71.255 33.7803Z" fill="black"/>
<path d="M48.7491 11.3125C46.6827 11.3125 45.002 12.9916 45.002 15.0561C45.002 17.1206 46.6827 18.7997 48.7491 18.7997C50.8156 18.7997 52.4963 17.1206 52.4963 15.0561C52.4963 12.9916 50.8156 11.3125 48.7491 11.3125Z" fill="black"/>
</g>
</g>
<defs>
<clipPath id="clip0_143_768">
<rect width="75" height="75" fill="white"/>
</clipPath>
<clipPath id="clip1_143_768">
<rect width="75" height="52.5" fill="white" transform="translate(0 11.25)"/>
</clipPath>
</defs>
</svg>
