<svg width="75" height="75" viewBox="0 0 75 75" fill="none" xmlns="http://www.w3.org/2000/svg">
<g clip-path="url(#clip0_143_709)">
<g clip-path="url(#clip1_143_709)">
<path d="M26.2433 56.2437C24.1768 56.2437 22.4961 57.9245 22.4961 59.9912C22.4961 62.0578 24.1768 63.7386 26.2433 63.7386C28.3098 63.7386 29.9905 62.0578 29.9905 59.9912C29.9905 57.9245 28.3098 56.2437 26.2433 56.2437Z" fill="black"/>
<path d="M14.9903 56.2437C12.9239 56.2437 11.2432 57.9245 11.2432 59.9912C11.2432 62.0578 12.9239 63.7386 14.9903 63.7386C17.0568 63.7386 18.7375 62.0578 18.7375 59.9912C18.7375 57.9245 17.0568 56.2437 14.9903 56.2437Z" fill="black"/>
<path d="M26.2433 44.9971C24.1768 44.9971 22.4961 46.6779 22.4961 48.7446C22.4961 50.8112 24.1768 52.4921 26.2433 52.4921C28.3098 52.4921 29.9905 50.8112 29.9905 48.7446C29.9905 46.6779 28.3098 44.9971 26.2433 44.9971Z" fill="black"/>
<path d="M14.9903 44.9971C12.9239 44.9971 11.2432 46.6779 11.2432 48.7446C11.2432 50.8112 12.9239 52.4921 14.9903 52.4921C17.0568 52.4921 18.7375 50.8112 18.7375 48.7446C18.7375 46.6779 17.0568 44.9971 14.9903 44.9971Z" fill="black"/>
<path d="M26.2433 22.4912C24.1768 22.4912 22.4961 24.1721 22.4961 26.2387C22.4961 28.3054 24.1768 29.9862 26.2433 29.9862C28.3098 29.9862 29.9905 28.3054 29.9905 26.2387C29.9905 24.1721 28.3098 22.4912 26.2433 22.4912Z" fill="black"/>
<path d="M14.9903 11.2446C12.9239 11.2446 11.2432 12.9255 11.2432 14.9921C11.2432 17.0588 12.9239 18.7396 14.9903 18.7396C17.0568 18.7396 18.7375 17.0588 18.7375 14.9921C18.7375 12.9255 17.0568 11.2446 14.9903 11.2446Z" fill="black"/>
<path d="M3.74718 11.2446C1.68071 11.2446 0 12.9255 0 14.9921C0 17.0588 1.68071 18.7396 3.74718 18.7396C5.81366 18.7396 7.49437 17.0588 7.49437 14.9921C7.49437 12.9255 5.81366 11.2446 3.74718 11.2446Z" fill="black"/>
<path d="M26.2433 0C24.1768 0 22.4961 1.68085 22.4961 3.7475C22.4961 5.81415 24.1768 7.49499 26.2433 7.49499C28.3098 7.49499 29.9905 5.81415 29.9905 3.7475C29.9905 1.68085 28.3098 0 26.2433 0Z" fill="black"/>
<path d="M37.4972 33.7524C35.4307 33.7524 33.75 35.4333 33.75 37.4999C33.75 39.5666 35.4307 41.2474 37.4972 41.2474C39.5637 41.2474 41.2444 39.5666 41.2444 37.4999C41.2444 35.4333 39.5637 33.7524 37.4972 33.7524Z" fill="black"/>
<path d="M37.4972 22.4912C35.4307 22.4912 33.75 24.1721 33.75 26.2387C33.75 28.3054 35.4307 29.9862 37.4972 29.9862C39.5637 29.9862 41.2444 28.3054 41.2444 26.2387C41.2444 24.1721 39.5637 22.4912 37.4972 22.4912Z" fill="black"/>
<path d="M37.4972 11.2446C35.4307 11.2446 33.75 12.9255 33.75 14.9921C33.75 17.0588 35.4307 18.7396 37.4972 18.7396C39.5637 18.7396 41.2444 17.0588 41.2444 14.9921C41.2444 12.9255 39.5637 11.2446 37.4972 11.2446Z" fill="black"/>
<path d="M14.9903 0C12.9239 0 11.2432 1.68085 11.2432 3.7475C11.2432 5.81415 12.9239 7.49499 14.9903 7.49499C17.0568 7.49499 18.7375 5.81415 18.7375 3.7475C18.7375 1.68085 17.0568 0 14.9903 0Z" fill="black"/>
<path d="M60.0011 67.5049C57.9346 67.5049 56.2539 69.1857 56.2539 71.2524C56.2539 73.319 57.9346 74.9999 60.0011 74.9999C62.0676 74.9999 63.7483 73.319 63.7483 71.2524C63.7483 69.1857 62.0676 67.5049 60.0011 67.5049Z" fill="black"/>
<path d="M60.0011 56.2437C57.9346 56.2437 56.2539 57.9245 56.2539 59.9912C56.2539 62.0578 57.9346 63.7386 60.0011 63.7386C62.0676 63.7386 63.7483 62.0578 63.7483 59.9912C63.7483 57.9245 62.0676 56.2437 60.0011 56.2437Z" fill="black"/>
<path d="M48.7491 44.9971C46.6827 44.9971 45.002 46.6779 45.002 48.7446C45.002 50.8112 46.6827 52.4921 48.7491 52.4921C50.8156 52.4921 52.4963 50.8112 52.4963 48.7446C52.4963 46.6779 50.8156 44.9971 48.7491 44.9971Z" fill="black"/>
<path d="M60.0011 33.7524C57.9346 33.7524 56.2539 35.4333 56.2539 37.4999C56.2539 39.5666 57.9346 41.2474 60.0011 41.2474C62.0676 41.2474 63.7483 39.5666 63.7483 37.4999C63.7483 35.4333 62.0676 33.7524 60.0011 33.7524Z" fill="black"/>
<path d="M48.7491 33.7524C46.6827 33.7524 45.002 35.4333 45.002 37.4999C45.002 39.5666 46.6827 41.2474 48.7491 41.2474C50.8156 41.2474 52.4963 39.5666 52.4963 37.4999C52.4963 35.4333 50.8156 33.7524 48.7491 33.7524Z" fill="black"/>
<path d="M60.0011 22.4912C57.9346 22.4912 56.2539 24.1721 56.2539 26.2387C56.2539 28.3054 57.9346 29.9862 60.0011 29.9862C62.0676 29.9862 63.7483 28.3054 63.7483 26.2387C63.7483 24.1721 62.0676 22.4912 60.0011 22.4912Z" fill="black"/>
<path d="M48.7491 22.4912C46.6827 22.4912 45.002 24.1721 45.002 26.2387C45.002 28.3054 46.6827 29.9862 48.7491 29.9862C50.8156 29.9862 52.4963 28.3054 52.4963 26.2387C52.4963 24.1721 50.8156 22.4912 48.7491 22.4912Z" fill="black"/>
<path d="M60.0011 11.2446C57.9346 11.2446 56.2539 12.9255 56.2539 14.9921C56.2539 17.0588 57.9346 18.7396 60.0011 18.7396C62.0676 18.7396 63.7483 17.0588 63.7483 14.9921C63.7483 12.9255 62.0676 11.2446 60.0011 11.2446Z" fill="black"/>
<path d="M48.7491 11.2446C46.6827 11.2446 45.002 12.9255 45.002 14.9921C45.002 17.0588 46.6827 18.7396 48.7491 18.7396C50.8156 18.7396 52.4963 17.0588 52.4963 14.9921C52.4963 12.9255 50.8156 11.2446 48.7491 11.2446Z" fill="black"/>
<path d="M60.0011 0C57.9346 0 56.2539 1.68085 56.2539 3.7475C56.2539 5.81415 57.9346 7.49499 60.0011 7.49499C62.0676 7.49499 63.7483 5.81415 63.7483 3.7475C63.7483 1.68085 62.0676 0 60.0011 0Z" fill="black"/>
<path d="M71.255 67.5049C69.1885 67.5049 67.5078 69.1857 67.5078 71.2524C67.5078 73.319 69.1885 74.9999 71.255 74.9999C73.3215 74.9999 75.0022 73.319 75.0022 71.2524C75.0022 69.1857 73.3215 67.5049 71.255 67.5049Z" fill="black"/>
<path d="M71.255 56.2437C69.1885 56.2437 67.5078 57.9245 67.5078 59.9912C67.5078 62.0578 69.1885 63.7386 71.255 63.7386C73.3215 63.7386 75.0022 62.0578 75.0022 59.9912C75.0022 57.9245 73.3215 56.2437 71.255 56.2437Z" fill="black"/>
<path d="M71.255 44.9971C69.1885 44.9971 67.5078 46.6779 67.5078 48.7446C67.5078 50.8112 69.1885 52.4921 71.255 52.4921C73.3215 52.4921 75.0022 50.8112 75.0022 48.7446C75.0022 46.6779 73.3215 44.9971 71.255 44.9971Z" fill="black"/>
<path d="M71.255 22.4912C69.1885 22.4912 67.5078 24.1721 67.5078 26.2387C67.5078 28.3054 69.1885 29.9862 71.255 29.9862C73.3215 29.9862 75.0022 28.3054 75.0022 26.2387C75.0022 24.1721 73.3215 22.4912 71.255 22.4912Z" fill="black"/>
<path d="M71.255 11.2446C69.1885 11.2446 67.5078 12.9255 67.5078 14.9921C67.5078 17.0588 69.1885 18.7396 71.255 18.7396C73.3215 18.7396 75.0022 17.0588 75.0022 14.9921C75.0022 12.9255 73.3215 11.2446 71.255 11.2446Z" fill="black"/>
<path d="M71.255 0C69.1885 0 67.5078 1.68085 67.5078 3.7475C67.5078 5.81415 69.1885 7.49499 71.255 7.49499C73.3215 7.49499 75.0022 5.81415 75.0022 3.7475C75.0022 1.68085 73.3194 0 71.255 0Z" fill="black"/>
<path d="M48.7491 0C46.6827 0 45.002 1.68085 45.002 3.7475C45.002 5.81415 46.6827 7.49499 48.7491 7.49499C50.8156 7.49499 52.4963 5.81415 52.4963 3.7475C52.4963 1.68085 50.8156 0 48.7491 0Z" fill="black"/>
<path d="M3.74718 0C1.68071 0 0 1.68085 0 3.7475C0 5.81415 1.68071 7.49499 3.74718 7.49499C5.81366 7.49499 7.49437 5.81415 7.49437 3.7475C7.49437 1.68085 5.81366 0 3.74718 0Z" fill="black"/>
</g>
</g>
<defs>
<clipPath id="clip0_143_709">
<rect width="75" height="75" fill="white"/>
</clipPath>
<clipPath id="clip1_143_709">
<rect width="75" height="75" fill="white"/>
</clipPath>
</defs>
</svg>
