<svg width="593" height="130" viewBox="0 0 593 130" fill="none" xmlns="http://www.w3.org/2000/svg">
<path d="M277.632 58.9691L269.466 54.7942C260.418 50.1811 250.173 44.9563 250.173 30.8444C250.173 16.7324 259.345 7.96105 273.005 7.96105C285.353 7.96105 294.615 15.5172 299.086 29.2323L299.317 29.9433H302.055V11.6234L301.544 11.3258C293.683 6.72925 282.342 3.64562 273.318 3.64562C254.834 3.64562 240.902 17.1293 240.902 35.011C240.902 52.8927 252.928 59.5808 264.204 65.3017L272.048 69.3112C287.184 77.074 297.106 83.2165 297.106 97.4441C297.106 109.688 288.272 122.088 271.396 122.088C257.465 122.088 246.618 112.358 241.644 95.3856L241.43 94.6416H238.626L239.483 118.236L239.937 118.525C247.847 123.634 261.391 126.396 270.118 126.396C291.465 126.396 306.378 112.771 306.378 93.261C306.378 73.7506 291.11 65.8638 277.632 58.9608V58.9691Z" fill="black"/>
<path d="M348.419 74.0895C370.244 74.0895 385.479 59.6717 385.479 39.0287C385.479 18.3858 370.665 5.58004 346.819 5.58004H310.394V8.6058H311.425C321.018 8.6058 321.925 13.2519 321.925 25.5451V104.504C321.925 116.797 321.018 121.443 311.425 121.443H310.394V124.477H345.128V121.443H344.097C334.644 121.443 332.962 117.004 332.962 104.504V71.6259C335.939 72.618 341.499 74.0812 348.427 74.0812L348.419 74.0895ZM332.953 62.4577V14.9549C332.953 11.7638 334.603 10.2096 338.01 10.2096H346.019C363.736 10.2096 373.486 20.4443 373.486 39.0287C373.486 57.6132 363.002 68.8068 344.732 68.8068C332.953 68.8068 332.953 64.1938 332.953 62.4577Z" fill="black"/>
<path d="M592.167 121.468C582.615 119.583 563.735 96.4437 535.195 61.3664L561.186 32.3324C578.623 12.8386 586.253 9.08529 589.255 8.58926L590.121 8.44872V5.58004H560.675V8.53139L561.623 8.6058C566.415 8.97782 568.197 10.1765 568.197 13.0287C568.197 16.4926 564.444 20.899 557.252 29.0338L524.489 65.6323L530.304 73.114C562.159 114.111 570.713 125.131 581.559 125.131C584.908 125.131 586.583 125.131 592.093 124.477L593 124.37V121.634L592.167 121.468Z" fill="black"/>
<path d="M521.577 104.504V25.5452C521.577 13.2521 522.484 8.60596 532.077 8.60596H533.108V5.58019H466.997V8.60596H468.028C477.621 8.60596 478.528 13.2521 478.528 25.5452V104.504C478.528 116.798 477.621 121.444 468.028 121.444H466.997V121.477L466.692 121.444C460.399 120.857 457.751 116.211 453 102.553L419.536 4.9767L419.297 4.28226H416.542L385.883 93.567C379.375 112.366 375.276 120.848 368.198 121.444L367.25 121.526V124.478H395.096V121.501L394.115 121.452C390.321 121.253 388.019 120.385 386.881 118.699C384.431 115.086 386.881 107.051 390.873 95.2204L395.435 81.9517H434.317L442.722 106.612C444.652 112.259 444.875 116.103 443.391 118.343C442.194 120.154 439.703 121.171 435.777 121.452L434.82 121.518V124.478H533.116V121.444H532.085C522.492 121.444 521.585 116.798 521.585 104.504H521.577ZM432.164 76.0324H397.414L414.711 24.9004L432.164 76.0324ZM500.048 121.452C490.456 121.452 489.548 116.806 489.548 104.513V25.5535C489.548 13.2603 490.456 8.61422 500.048 8.61422C509.641 8.61422 510.549 13.2603 510.549 25.5535V104.513C510.549 116.806 509.641 121.452 500.048 121.452Z" fill="black"/>
<path d="M39.4599 118.707C36.3503 118.707 33.8263 121.237 33.8263 124.354C33.8263 127.47 36.3503 130 39.4599 130C42.5695 130 45.0935 127.47 45.0935 124.354C45.0935 121.237 42.5695 118.707 39.4599 118.707Z" fill="black"/>
<path d="M22.5428 118.707C19.4331 118.707 16.9091 121.237 16.9091 124.354C16.9091 127.47 19.4331 130 22.5428 130C25.6524 130 28.1764 127.47 28.1764 124.354C28.1764 121.237 25.6524 118.707 22.5428 118.707Z" fill="black"/>
<path d="M5.63363 118.707C2.524 118.707 0 121.237 0 124.354C0 127.47 2.524 130 5.63363 130C8.74326 130 11.2673 127.47 11.2673 124.354C11.2673 121.237 8.74326 118.707 5.63363 118.707Z" fill="black"/>
<path d="M90.2292 118.707C87.1196 118.707 84.5956 121.237 84.5956 124.354C84.5956 127.47 87.1196 130 90.2292 130C93.3388 130 95.8628 127.47 95.8628 124.354C95.8628 121.237 93.3388 118.707 90.2292 118.707Z" fill="black"/>
<path d="M107.146 118.707C104.037 118.707 101.513 121.237 101.513 124.354C101.513 127.47 104.037 130 107.146 130C110.256 130 112.78 127.47 112.78 124.354C112.78 121.237 110.256 118.707 107.146 118.707Z" fill="black"/>
<path d="M107.146 50.8592C104.037 50.8592 101.513 53.3889 101.513 56.5056C101.513 59.6223 104.037 62.152 107.146 62.152C110.256 62.152 112.78 59.6223 112.78 56.5056C112.78 53.3889 110.256 50.8592 107.146 50.8592Z" fill="black"/>
<path d="M73.312 118.707C70.2024 118.707 67.6784 121.237 67.6784 124.354C67.6784 127.47 70.2024 130 73.312 130C76.4217 130 78.9457 127.47 78.9457 124.354C78.9457 121.237 76.4217 118.707 73.312 118.707Z" fill="black"/>
<path d="M90.2292 101.743C87.1196 101.743 84.5956 104.273 84.5956 107.389C84.5956 110.506 87.1196 113.036 90.2292 113.036C93.3388 113.036 95.8628 110.506 95.8628 107.389C95.8628 104.273 93.3388 101.743 90.2292 101.743Z" fill="black"/>
<path d="M73.312 101.743C70.2024 101.743 67.6784 104.273 67.6784 107.389C67.6784 110.506 70.2024 113.036 73.312 113.036C76.4217 113.036 78.9457 110.506 78.9457 107.389C78.9457 104.273 76.4217 101.743 73.312 101.743Z" fill="black"/>
<path d="M81.7747 84.7789C78.665 84.7789 76.141 87.3086 76.141 90.4253C76.141 93.542 78.665 96.0718 81.7747 96.0718C84.8843 96.0718 87.4083 93.542 87.4083 90.4253C87.4083 87.3086 84.8843 84.7789 81.7747 84.7789Z" fill="black"/>
<path d="M56.4029 118.707C53.2933 118.707 50.7693 121.237 50.7693 124.354C50.7693 127.47 53.2933 130 56.4029 130C59.5125 130 62.0365 127.47 62.0365 124.354C62.0365 121.237 59.5125 118.707 56.4029 118.707Z" fill="black"/>
<path d="M56.4029 50.8592C53.2933 50.8592 50.7693 53.3889 50.7693 56.5056C50.7693 59.6223 53.2933 62.152 56.4029 62.152C59.5125 62.152 62.0365 59.6223 62.0365 56.5056C62.0365 53.3889 59.5125 50.8592 56.4029 50.8592Z" fill="black"/>
<path d="M39.4599 101.735C36.3503 101.735 33.8263 104.265 33.8263 107.381C33.8263 110.498 36.3503 113.028 39.4599 113.028C42.5695 113.028 45.0935 110.498 45.0935 107.381C45.0935 104.265 42.5695 101.735 39.4599 101.735Z" fill="black"/>
<path d="M22.5428 101.735C19.4331 101.735 16.9091 104.265 16.9091 107.381C16.9091 110.498 19.4331 113.028 22.5428 113.028C25.6524 113.028 28.1764 110.498 28.1764 107.381C28.1764 104.265 25.6524 101.735 22.5428 101.735Z" fill="black"/>
<path d="M5.63363 101.735C2.524 101.735 0 104.265 0 107.381C0 110.498 2.524 113.028 5.63363 113.028C8.74326 113.028 11.2673 110.498 11.2673 107.381C11.2673 104.265 8.74326 101.735 5.63363 101.735Z" fill="black"/>
<path d="M39.4599 84.7874C36.3503 84.7874 33.8263 87.3171 33.8263 90.4338C33.8263 93.5505 36.3503 96.0803 39.4599 96.0803C42.5695 96.0803 45.0935 93.5505 45.0935 90.4338C45.0935 87.3171 42.5695 84.7874 39.4599 84.7874Z" fill="black"/>
<path d="M22.5428 84.7874C19.4331 84.7874 16.9091 87.3171 16.9091 90.4338C16.9091 93.5505 19.4331 96.0803 22.5428 96.0803C25.6524 96.0803 28.1764 93.5505 28.1764 90.4338C28.1764 87.3171 25.6524 84.7874 22.5428 84.7874Z" fill="black"/>
<path d="M5.63363 84.7874C2.524 84.7874 0 87.3171 0 90.4338C0 93.5505 2.524 96.0803 5.63363 96.0803C8.74326 96.0803 11.2673 93.5505 11.2673 90.4338C11.2673 87.3171 8.74326 84.7874 5.63363 84.7874Z" fill="black"/>
<path d="M157.906 118.707C154.796 118.707 152.272 121.237 152.272 124.354C152.272 127.47 154.796 130 157.906 130C161.016 130 163.54 127.47 163.54 124.354C163.54 121.237 161.016 118.707 157.906 118.707Z" fill="black"/>
<path d="M140.989 118.707C137.879 118.707 135.355 121.237 135.355 124.354C135.355 127.47 137.879 130 140.989 130C144.098 130 146.622 127.47 146.622 124.354C146.622 121.237 144.098 118.707 140.989 118.707Z" fill="black"/>
<path d="M124.08 118.707C120.97 118.707 118.446 121.237 118.446 124.354C118.446 127.47 120.97 130 124.08 130C127.189 130 129.713 127.47 129.713 124.354C129.713 121.237 127.189 118.707 124.08 118.707Z" fill="black"/>
<path d="M157.906 101.735C154.796 101.735 152.272 104.265 152.272 107.381C152.272 110.498 154.796 113.028 157.906 113.028C161.016 113.028 163.54 110.498 163.54 107.381C163.54 104.265 161.016 101.735 157.906 101.735Z" fill="black"/>
<path d="M140.989 101.735C137.879 101.735 135.355 104.265 135.355 107.381C135.355 110.498 137.879 113.028 140.989 113.028C144.098 113.028 146.622 110.498 146.622 107.381C146.622 104.265 144.098 101.735 140.989 101.735Z" fill="black"/>
<path d="M124.08 101.735C120.97 101.735 118.446 104.265 118.446 107.381C118.446 110.498 120.97 113.028 124.08 113.028C127.189 113.028 129.713 110.498 129.713 107.381C129.713 104.265 127.189 101.735 124.08 101.735Z" fill="black"/>
<path d="M157.906 84.7874C154.796 84.7874 152.272 87.3171 152.272 90.4338C152.272 93.5505 154.796 96.0803 157.906 96.0803C161.016 96.0803 163.54 93.5505 163.54 90.4338C163.54 87.3171 161.016 84.7874 157.906 84.7874Z" fill="black"/>
<path d="M140.989 84.7874C137.879 84.7874 135.355 87.3171 135.355 90.4338C135.355 93.5505 137.879 96.0803 140.989 96.0803C144.098 96.0803 146.622 93.5505 146.622 90.4338C146.622 87.3171 144.098 84.7874 140.989 84.7874Z" fill="black"/>
<path d="M124.08 84.7874C120.97 84.7874 118.446 87.3171 118.446 90.4338C118.446 93.5505 120.97 96.0803 124.08 96.0803C127.189 96.0803 129.713 93.5505 129.713 90.4338C129.713 87.3171 127.189 84.7874 124.08 84.7874Z" fill="black"/>
<path d="M39.4599 67.8233C36.3503 67.8233 33.8263 70.353 33.8263 73.4697C33.8263 76.5864 36.3503 79.1162 39.4599 79.1162C42.5695 79.1162 45.0935 76.5864 45.0935 73.4697C45.0935 70.353 42.5695 67.8233 39.4599 67.8233Z" fill="black"/>
<path d="M22.5428 67.8233C19.4331 67.8233 16.9091 70.353 16.9091 73.4697C16.9091 76.5864 19.4331 79.1162 22.5428 79.1162C25.6524 79.1162 28.1764 76.5864 28.1764 73.4697C28.1764 70.353 25.6524 67.8233 22.5428 67.8233Z" fill="black"/>
<path d="M5.63363 67.8233C2.524 67.8233 0 70.353 0 73.4697C0 76.5864 2.524 79.1162 5.63363 79.1162C8.74326 79.1162 11.2673 76.5864 11.2673 73.4697C11.2673 70.353 8.74326 67.8233 5.63363 67.8233Z" fill="black"/>
<path d="M157.906 67.8233C154.796 67.8233 152.272 70.353 152.272 73.4697C152.272 76.5864 154.796 79.1162 157.906 79.1162C161.016 79.1162 163.54 76.5864 163.54 73.4697C163.54 70.353 161.016 67.8233 157.906 67.8233Z" fill="black"/>
<path d="M140.989 67.8233C137.879 67.8233 135.355 70.353 135.355 73.4697C135.355 76.5864 137.879 79.1162 140.989 79.1162C144.098 79.1162 146.622 76.5864 146.622 73.4697C146.622 70.353 144.098 67.8233 140.989 67.8233Z" fill="black"/>
<path d="M124.08 67.8233C120.97 67.8233 118.446 70.353 118.446 73.4697C118.446 76.5864 120.97 79.1162 124.08 79.1162C127.189 79.1162 129.713 76.5864 129.713 73.4697C129.713 70.353 127.189 67.8233 124.08 67.8233Z" fill="black"/>
<path d="M39.4599 50.8758C36.3503 50.8758 33.8263 53.4055 33.8263 56.5222C33.8263 59.6389 36.3503 62.1686 39.4599 62.1686C42.5695 62.1686 45.0935 59.6389 45.0935 56.5222C45.0935 53.4055 42.5695 50.8758 39.4599 50.8758Z" fill="black"/>
<path d="M39.4599 33.9197C36.3503 33.9197 33.8263 36.4495 33.8263 39.5662C33.8263 42.6829 36.3503 45.2126 39.4599 45.2126C42.5695 45.2126 45.0935 42.6829 45.0935 39.5662C45.0935 36.4495 42.5695 33.9197 39.4599 33.9197Z" fill="black"/>
<path d="M22.5428 50.8758C19.4331 50.8758 16.9091 53.4055 16.9091 56.5222C16.9091 59.6389 19.4331 62.1686 22.5428 62.1686C25.6524 62.1686 28.1764 59.6389 28.1764 56.5222C28.1764 53.4055 25.6524 50.8758 22.5428 50.8758Z" fill="black"/>
<path d="M140.989 50.8758C137.879 50.8758 135.355 53.4055 135.355 56.5222C135.355 59.6389 137.879 62.1686 140.989 62.1686C144.098 62.1686 146.622 59.6389 146.622 56.5222C146.622 53.4055 144.098 50.8758 140.989 50.8758Z" fill="black"/>
<path d="M124.08 50.8758C120.97 50.8758 118.446 53.4055 118.446 56.5222C118.446 59.6389 120.97 62.1686 124.08 62.1686C127.189 62.1686 129.713 59.6389 129.713 56.5222C129.713 53.4055 127.189 50.8758 124.08 50.8758Z" fill="black"/>
<path d="M124.08 33.9197C120.97 33.9197 118.446 36.4495 118.446 39.5662C118.446 42.6829 120.97 45.2126 124.08 45.2126C127.189 45.2126 129.713 42.6829 129.713 39.5662C129.713 36.4495 127.189 33.9197 124.08 33.9197Z" fill="black"/>
<path d="M107.138 33.9197C104.029 33.9197 101.505 36.4495 101.505 39.5662C101.505 42.6829 104.029 45.2126 107.138 45.2126C110.248 45.2126 112.772 42.6829 112.772 39.5662C112.772 36.4495 110.248 33.9197 107.138 33.9197Z" fill="black"/>
<path d="M90.2212 33.9197C87.1115 33.9197 84.5875 36.4495 84.5875 39.5662C84.5875 42.6829 87.1115 45.2126 90.2212 45.2126C93.3308 45.2126 95.8548 42.6829 95.8548 39.5662C95.8548 36.4495 93.3308 33.9197 90.2212 33.9197Z" fill="black"/>
<path d="M73.312 33.9197C70.2024 33.9197 67.6784 36.4495 67.6784 39.5662C67.6784 42.6829 70.2024 45.2126 73.312 45.2126C76.4217 45.2126 78.9457 42.6829 78.9457 39.5662C78.9457 36.4495 76.4217 33.9197 73.312 33.9197Z" fill="black"/>
<path d="M56.3932 33.9197C53.2836 33.9197 50.7596 36.4495 50.7596 39.5662C50.7596 42.6829 53.2836 45.2126 56.3932 45.2126C59.5028 45.2126 62.0268 42.6829 62.0268 39.5662C62.0268 36.4495 59.5028 33.9197 56.3932 33.9197Z" fill="black"/>
<path d="M107.138 16.9641C104.029 16.9641 101.505 19.4938 101.505 22.6105C101.505 25.7272 104.029 28.2569 107.138 28.2569C110.248 28.2569 112.772 25.7272 112.772 22.6105C112.772 19.4938 110.248 16.9641 107.138 16.9641Z" fill="black"/>
<path d="M90.2212 16.9641C87.1115 16.9641 84.5875 19.4938 84.5875 22.6105C84.5875 25.7272 87.1115 28.2569 90.2212 28.2569C93.3308 28.2569 95.8548 25.7272 95.8548 22.6105C95.8548 19.4938 93.3308 16.9641 90.2212 16.9641Z" fill="black"/>
<path d="M73.312 16.9641C70.2024 16.9641 67.6784 19.4938 67.6784 22.6105C67.6784 25.7272 70.2024 28.2569 73.312 28.2569C76.4217 28.2569 78.9457 25.7272 78.9457 22.6105C78.9457 19.4938 76.4217 16.9641 73.312 16.9641Z" fill="black"/>
<path d="M56.3932 16.9641C53.2836 16.9641 50.7596 19.4938 50.7596 22.6105C50.7596 25.7272 53.2836 28.2569 56.3932 28.2569C59.5028 28.2569 62.0268 25.7272 62.0268 22.6105C62.0268 19.4938 59.5028 16.9641 56.3932 16.9641Z" fill="black"/>
<path d="M107.138 0C104.029 0 101.505 2.52973 101.505 5.64643C101.505 8.76313 104.029 11.2929 107.138 11.2929C110.248 11.2929 112.772 8.76313 112.772 5.64643C112.772 2.52973 110.248 0 107.138 0Z" fill="black"/>
<path d="M90.2212 0C87.1115 0 84.5875 2.52973 84.5875 5.64643C84.5875 8.76313 87.1115 11.2929 90.2212 11.2929C93.3308 11.2929 95.8548 8.76313 95.8548 5.64643C95.8548 2.52973 93.3308 0 90.2212 0Z" fill="black"/>
<path d="M73.312 0C70.2024 0 67.6784 2.52973 67.6784 5.64643C67.6784 8.76313 70.2024 11.2929 73.312 11.2929C76.4217 11.2929 78.9457 8.76313 78.9457 5.64643C78.9457 2.52973 76.4217 0 73.312 0Z" fill="black"/>
<path d="M56.3932 0C53.2836 0 50.7596 2.52973 50.7596 5.64643C50.7596 8.76313 53.2836 11.2929 56.3932 11.2929C59.5028 11.2929 62.0268 8.76313 62.0268 5.64643C62.0268 2.52973 59.5028 0 56.3932 0Z" fill="black"/>
<path d="M39.4599 118.707C36.3503 118.707 33.8263 121.237 33.8263 124.354C33.8263 127.47 36.3503 130 39.4599 130C42.5695 130 45.0935 127.47 45.0935 124.354C45.0935 121.237 42.5695 118.707 39.4599 118.707Z" fill="black"/>
<path d="M22.5428 118.707C19.4331 118.707 16.9091 121.237 16.9091 124.354C16.9091 127.47 19.4331 130 22.5428 130C25.6524 130 28.1764 127.47 28.1764 124.354C28.1764 121.237 25.6524 118.707 22.5428 118.707Z" fill="black"/>
<path d="M5.63363 118.707C2.524 118.707 0 121.237 0 124.354C0 127.47 2.524 130 5.63363 130C8.74326 130 11.2673 127.47 11.2673 124.354C11.2673 121.237 8.74326 118.707 5.63363 118.707Z" fill="black"/>
<path d="M90.2292 118.707C87.1196 118.707 84.5956 121.237 84.5956 124.354C84.5956 127.47 87.1196 130 90.2292 130C93.3388 130 95.8628 127.47 95.8628 124.354C95.8628 121.237 93.3388 118.707 90.2292 118.707Z" fill="black"/>
<path d="M107.146 118.707C104.037 118.707 101.513 121.237 101.513 124.354C101.513 127.47 104.037 130 107.146 130C110.256 130 112.78 127.47 112.78 124.354C112.78 121.237 110.256 118.707 107.146 118.707Z" fill="black"/>
<path d="M107.146 50.8592C104.037 50.8592 101.513 53.3889 101.513 56.5056C101.513 59.6223 104.037 62.152 107.146 62.152C110.256 62.152 112.78 59.6223 112.78 56.5056C112.78 53.3889 110.256 50.8592 107.146 50.8592Z" fill="black"/>
<path d="M73.312 118.707C70.2024 118.707 67.6784 121.237 67.6784 124.354C67.6784 127.47 70.2024 130 73.312 130C76.4217 130 78.9457 127.47 78.9457 124.354C78.9457 121.237 76.4217 118.707 73.312 118.707Z" fill="black"/>
<path d="M90.2292 101.743C87.1196 101.743 84.5956 104.273 84.5956 107.389C84.5956 110.506 87.1196 113.036 90.2292 113.036C93.3388 113.036 95.8628 110.506 95.8628 107.389C95.8628 104.273 93.3388 101.743 90.2292 101.743Z" fill="black"/>
<path d="M73.312 101.743C70.2024 101.743 67.6784 104.273 67.6784 107.389C67.6784 110.506 70.2024 113.036 73.312 113.036C76.4217 113.036 78.9457 110.506 78.9457 107.389C78.9457 104.273 76.4217 101.743 73.312 101.743Z" fill="black"/>
<path d="M81.7747 84.7789C78.665 84.7789 76.141 87.3086 76.141 90.4253C76.141 93.542 78.665 96.0718 81.7747 96.0718C84.8843 96.0718 87.4083 93.542 87.4083 90.4253C87.4083 87.3086 84.8843 84.7789 81.7747 84.7789Z" fill="black"/>
<path d="M56.4029 118.707C53.2933 118.707 50.7693 121.237 50.7693 124.354C50.7693 127.47 53.2933 130 56.4029 130C59.5125 130 62.0365 127.47 62.0365 124.354C62.0365 121.237 59.5125 118.707 56.4029 118.707Z" fill="black"/>
<path d="M56.4029 50.8592C53.2933 50.8592 50.7693 53.3889 50.7693 56.5056C50.7693 59.6223 53.2933 62.152 56.4029 62.152C59.5125 62.152 62.0365 59.6223 62.0365 56.5056C62.0365 53.3889 59.5125 50.8592 56.4029 50.8592Z" fill="black"/>
<path d="M39.4599 101.735C36.3503 101.735 33.8263 104.265 33.8263 107.381C33.8263 110.498 36.3503 113.028 39.4599 113.028C42.5695 113.028 45.0935 110.498 45.0935 107.381C45.0935 104.265 42.5695 101.735 39.4599 101.735Z" fill="black"/>
<path d="M22.5428 101.735C19.4331 101.735 16.9091 104.265 16.9091 107.381C16.9091 110.498 19.4331 113.028 22.5428 113.028C25.6524 113.028 28.1764 110.498 28.1764 107.381C28.1764 104.265 25.6524 101.735 22.5428 101.735Z" fill="black"/>
<path d="M5.63363 101.735C2.524 101.735 0 104.265 0 107.381C0 110.498 2.524 113.028 5.63363 113.028C8.74326 113.028 11.2673 110.498 11.2673 107.381C11.2673 104.265 8.74326 101.735 5.63363 101.735Z" fill="black"/>
<path d="M39.4599 84.7874C36.3503 84.7874 33.8263 87.3171 33.8263 90.4338C33.8263 93.5505 36.3503 96.0803 39.4599 96.0803C42.5695 96.0803 45.0935 93.5505 45.0935 90.4338C45.0935 87.3171 42.5695 84.7874 39.4599 84.7874Z" fill="black"/>
<path d="M22.5428 84.7874C19.4331 84.7874 16.9091 87.3171 16.9091 90.4338C16.9091 93.5505 19.4331 96.0803 22.5428 96.0803C25.6524 96.0803 28.1764 93.5505 28.1764 90.4338C28.1764 87.3171 25.6524 84.7874 22.5428 84.7874Z" fill="black"/>
<path d="M5.63363 84.7874C2.524 84.7874 0 87.3171 0 90.4338C0 93.5505 2.524 96.0803 5.63363 96.0803C8.74326 96.0803 11.2673 93.5505 11.2673 90.4338C11.2673 87.3171 8.74326 84.7874 5.63363 84.7874Z" fill="black"/>
<path d="M157.906 118.707C154.796 118.707 152.272 121.237 152.272 124.354C152.272 127.47 154.796 130 157.906 130C161.016 130 163.54 127.47 163.54 124.354C163.54 121.237 161.016 118.707 157.906 118.707Z" fill="black"/>
<path d="M140.989 118.707C137.879 118.707 135.355 121.237 135.355 124.354C135.355 127.47 137.879 130 140.989 130C144.098 130 146.622 127.47 146.622 124.354C146.622 121.237 144.098 118.707 140.989 118.707Z" fill="black"/>
<path d="M124.08 118.707C120.97 118.707 118.446 121.237 118.446 124.354C118.446 127.47 120.97 130 124.08 130C127.189 130 129.713 127.47 129.713 124.354C129.713 121.237 127.189 118.707 124.08 118.707Z" fill="black"/>
<path d="M157.906 101.735C154.796 101.735 152.272 104.265 152.272 107.381C152.272 110.498 154.796 113.028 157.906 113.028C161.016 113.028 163.54 110.498 163.54 107.381C163.54 104.265 161.016 101.735 157.906 101.735Z" fill="black"/>
<path d="M140.989 101.735C137.879 101.735 135.355 104.265 135.355 107.381C135.355 110.498 137.879 113.028 140.989 113.028C144.098 113.028 146.622 110.498 146.622 107.381C146.622 104.265 144.098 101.735 140.989 101.735Z" fill="black"/>
<path d="M124.08 101.735C120.97 101.735 118.446 104.265 118.446 107.381C118.446 110.498 120.97 113.028 124.08 113.028C127.189 113.028 129.713 110.498 129.713 107.381C129.713 104.265 127.189 101.735 124.08 101.735Z" fill="black"/>
<path d="M157.906 84.7874C154.796 84.7874 152.272 87.3171 152.272 90.4338C152.272 93.5505 154.796 96.0803 157.906 96.0803C161.016 96.0803 163.54 93.5505 163.54 90.4338C163.54 87.3171 161.016 84.7874 157.906 84.7874Z" fill="black"/>
<path d="M140.989 84.7874C137.879 84.7874 135.355 87.3171 135.355 90.4338C135.355 93.5505 137.879 96.0803 140.989 96.0803C144.098 96.0803 146.622 93.5505 146.622 90.4338C146.622 87.3171 144.098 84.7874 140.989 84.7874Z" fill="black"/>
<path d="M124.08 84.7874C120.97 84.7874 118.446 87.3171 118.446 90.4338C118.446 93.5505 120.97 96.0803 124.08 96.0803C127.189 96.0803 129.713 93.5505 129.713 90.4338C129.713 87.3171 127.189 84.7874 124.08 84.7874Z" fill="black"/>
<path d="M39.4599 67.8233C36.3503 67.8233 33.8263 70.353 33.8263 73.4697C33.8263 76.5864 36.3503 79.1162 39.4599 79.1162C42.5695 79.1162 45.0935 76.5864 45.0935 73.4697C45.0935 70.353 42.5695 67.8233 39.4599 67.8233Z" fill="black"/>
<path d="M22.5428 67.8233C19.4331 67.8233 16.9091 70.353 16.9091 73.4697C16.9091 76.5864 19.4331 79.1162 22.5428 79.1162C25.6524 79.1162 28.1764 76.5864 28.1764 73.4697C28.1764 70.353 25.6524 67.8233 22.5428 67.8233Z" fill="black"/>
<path d="M5.63363 67.8233C2.524 67.8233 0 70.353 0 73.4697C0 76.5864 2.524 79.1162 5.63363 79.1162C8.74326 79.1162 11.2673 76.5864 11.2673 73.4697C11.2673 70.353 8.74326 67.8233 5.63363 67.8233Z" fill="black"/>
<path d="M157.906 67.8233C154.796 67.8233 152.272 70.353 152.272 73.4697C152.272 76.5864 154.796 79.1162 157.906 79.1162C161.016 79.1162 163.54 76.5864 163.54 73.4697C163.54 70.353 161.016 67.8233 157.906 67.8233Z" fill="black"/>
<path d="M140.989 67.8233C137.879 67.8233 135.355 70.353 135.355 73.4697C135.355 76.5864 137.879 79.1162 140.989 79.1162C144.098 79.1162 146.622 76.5864 146.622 73.4697C146.622 70.353 144.098 67.8233 140.989 67.8233Z" fill="black"/>
<path d="M124.08 67.8233C120.97 67.8233 118.446 70.353 118.446 73.4697C118.446 76.5864 120.97 79.1162 124.08 79.1162C127.189 79.1162 129.713 76.5864 129.713 73.4697C129.713 70.353 127.189 67.8233 124.08 67.8233Z" fill="black"/>
<path d="M39.4599 50.8758C36.3503 50.8758 33.8263 53.4055 33.8263 56.5222C33.8263 59.6389 36.3503 62.1686 39.4599 62.1686C42.5695 62.1686 45.0935 59.6389 45.0935 56.5222C45.0935 53.4055 42.5695 50.8758 39.4599 50.8758Z" fill="black"/>
<path d="M39.4599 33.9197C36.3503 33.9197 33.8263 36.4495 33.8263 39.5662C33.8263 42.6829 36.3503 45.2126 39.4599 45.2126C42.5695 45.2126 45.0935 42.6829 45.0935 39.5662C45.0935 36.4495 42.5695 33.9197 39.4599 33.9197Z" fill="black"/>
<path d="M22.5428 50.8758C19.4331 50.8758 16.9091 53.4055 16.9091 56.5222C16.9091 59.6389 19.4331 62.1686 22.5428 62.1686C25.6524 62.1686 28.1764 59.6389 28.1764 56.5222C28.1764 53.4055 25.6524 50.8758 22.5428 50.8758Z" fill="black"/>
<path d="M140.989 50.8758C137.879 50.8758 135.355 53.4055 135.355 56.5222C135.355 59.6389 137.879 62.1686 140.989 62.1686C144.098 62.1686 146.622 59.6389 146.622 56.5222C146.622 53.4055 144.098 50.8758 140.989 50.8758Z" fill="black"/>
<path d="M124.08 50.8758C120.97 50.8758 118.446 53.4055 118.446 56.5222C118.446 59.6389 120.97 62.1686 124.08 62.1686C127.189 62.1686 129.713 59.6389 129.713 56.5222C129.713 53.4055 127.189 50.8758 124.08 50.8758Z" fill="black"/>
<path d="M124.08 33.9197C120.97 33.9197 118.446 36.4495 118.446 39.5662C118.446 42.6829 120.97 45.2126 124.08 45.2126C127.189 45.2126 129.713 42.6829 129.713 39.5662C129.713 36.4495 127.189 33.9197 124.08 33.9197Z" fill="black"/>
<path d="M107.138 33.9197C104.029 33.9197 101.505 36.4495 101.505 39.5662C101.505 42.6829 104.029 45.2126 107.138 45.2126C110.248 45.2126 112.772 42.6829 112.772 39.5662C112.772 36.4495 110.248 33.9197 107.138 33.9197Z" fill="black"/>
<path d="M90.2212 33.9197C87.1115 33.9197 84.5875 36.4495 84.5875 39.5662C84.5875 42.6829 87.1115 45.2126 90.2212 45.2126C93.3308 45.2126 95.8548 42.6829 95.8548 39.5662C95.8548 36.4495 93.3308 33.9197 90.2212 33.9197Z" fill="black"/>
<path d="M73.312 33.9197C70.2024 33.9197 67.6784 36.4495 67.6784 39.5662C67.6784 42.6829 70.2024 45.2126 73.312 45.2126C76.4217 45.2126 78.9457 42.6829 78.9457 39.5662C78.9457 36.4495 76.4217 33.9197 73.312 33.9197Z" fill="black"/>
<path d="M56.3932 33.9197C53.2836 33.9197 50.7596 36.4495 50.7596 39.5662C50.7596 42.6829 53.2836 45.2126 56.3932 45.2126C59.5028 45.2126 62.0268 42.6829 62.0268 39.5662C62.0268 36.4495 59.5028 33.9197 56.3932 33.9197Z" fill="black"/>
<path d="M107.138 16.9641C104.029 16.9641 101.505 19.4938 101.505 22.6105C101.505 25.7272 104.029 28.2569 107.138 28.2569C110.248 28.2569 112.772 25.7272 112.772 22.6105C112.772 19.4938 110.248 16.9641 107.138 16.9641Z" fill="black"/>
<path d="M90.2212 16.9641C87.1115 16.9641 84.5875 19.4938 84.5875 22.6105C84.5875 25.7272 87.1115 28.2569 90.2212 28.2569C93.3308 28.2569 95.8548 25.7272 95.8548 22.6105C95.8548 19.4938 93.3308 16.9641 90.2212 16.9641Z" fill="black"/>
<path d="M73.312 16.9641C70.2024 16.9641 67.6784 19.4938 67.6784 22.6105C67.6784 25.7272 70.2024 28.2569 73.312 28.2569C76.4217 28.2569 78.9457 25.7272 78.9457 22.6105C78.9457 19.4938 76.4217 16.9641 73.312 16.9641Z" fill="black"/>
<path d="M56.3932 16.9641C53.2836 16.9641 50.7596 19.4938 50.7596 22.6105C50.7596 25.7272 53.2836 28.2569 56.3932 28.2569C59.5028 28.2569 62.0268 25.7272 62.0268 22.6105C62.0268 19.4938 59.5028 16.9641 56.3932 16.9641Z" fill="black"/>
<path d="M107.138 0C104.029 0 101.505 2.52973 101.505 5.64643C101.505 8.76313 104.029 11.2929 107.138 11.2929C110.248 11.2929 112.772 8.76313 112.772 5.64643C112.772 2.52973 110.248 0 107.138 0Z" fill="black"/>
<path d="M90.2212 0C87.1115 0 84.5875 2.52973 84.5875 5.64643C84.5875 8.76313 87.1115 11.2929 90.2212 11.2929C93.3308 11.2929 95.8548 8.76313 95.8548 5.64643C95.8548 2.52973 93.3308 0 90.2212 0Z" fill="black"/>
<path d="M73.312 0C70.2024 0 67.6784 2.52973 67.6784 5.64643C67.6784 8.76313 70.2024 11.2929 73.312 11.2929C76.4217 11.2929 78.9457 8.76313 78.9457 5.64643C78.9457 2.52973 76.4217 0 73.312 0Z" fill="black"/>
<path d="M56.3932 0C53.2836 0 50.7596 2.52973 50.7596 5.64643C50.7596 8.76313 53.2836 11.2929 56.3932 11.2929C59.5028 11.2929 62.0268 8.76313 62.0268 5.64643C62.0268 2.52973 59.5028 0 56.3932 0Z" fill="black"/>
</svg>
