<svg width="350" height="278" viewBox="0 0 350 278" fill="none" xmlns="http://www.w3.org/2000/svg">
<path d="M84.4536 253.478C77.8029 253.478 72.4053 258.895 72.4053 265.545C72.4053 272.196 77.8222 277.594 84.4536 277.594C91.085 277.594 96.502 272.177 96.502 265.545C96.502 258.914 91.085 253.478 84.4536 253.478Z" fill="black"/>
<path d="M48.2329 253.478C41.5822 253.478 36.1846 258.895 36.1846 265.545C36.1846 272.196 41.6015 277.594 48.2329 277.594C54.8643 277.594 60.2813 272.177 60.2813 265.545C60.2813 258.914 54.8643 253.478 48.2329 253.478Z" fill="black"/>
<path d="M12.0483 253.478C5.39766 253.478 0 258.895 0 265.545C0 272.196 5.41694 277.594 12.0483 277.594C18.6798 277.594 24.0967 272.177 24.0967 265.545C24.0967 258.914 18.6798 253.478 12.0483 253.478Z" fill="black"/>
<path d="M193.101 253.478C186.45 253.478 181.053 258.895 181.053 265.545C181.053 272.196 186.47 277.594 193.101 277.594C199.732 277.594 205.149 272.177 205.149 265.545C205.149 258.914 199.732 253.478 193.101 253.478Z" fill="black"/>
<path d="M229.323 253.478C222.672 253.478 217.274 258.895 217.274 265.545C217.274 272.196 222.691 277.594 229.323 277.594C235.954 277.594 241.371 272.177 241.371 265.545C241.371 258.914 235.954 253.478 229.323 253.478Z" fill="black"/>
<path d="M229.323 108.609C222.672 108.609 217.274 114.026 217.274 120.676C217.274 127.327 222.691 132.725 229.323 132.725C235.954 132.725 241.371 127.308 241.371 120.676C241.371 114.045 235.954 108.609 229.323 108.609Z" fill="black"/>
<path d="M156.897 253.478C150.247 253.478 144.849 258.895 144.849 265.545C144.849 272.196 150.266 277.594 156.897 277.594C163.529 277.594 168.946 272.177 168.946 265.545C168.946 258.914 163.529 253.478 156.897 253.478Z" fill="black"/>
<path d="M193.101 217.255C186.45 217.255 181.053 222.672 181.053 229.323C181.053 235.973 186.47 241.371 193.101 241.371C199.732 241.371 205.149 235.954 205.149 229.323C205.149 222.691 199.732 217.255 193.101 217.255Z" fill="black"/>
<path d="M156.897 217.255C150.247 217.255 144.849 222.672 144.849 229.323C144.849 235.973 150.266 241.371 156.897 241.371C163.529 241.371 168.946 235.954 168.946 229.323C168.946 222.691 163.529 217.255 156.897 217.255Z" fill="black"/>
<path d="M175 181.034C168.349 181.034 162.951 186.451 162.951 193.101C162.951 199.752 168.368 205.15 175 205.15C181.631 205.15 187.048 199.733 187.048 193.101C187.048 186.47 181.631 181.034 175 181.034Z" fill="black"/>
<path d="M120.714 253.478C114.064 253.478 108.666 258.895 108.666 265.545C108.666 272.196 114.083 277.594 120.714 277.594C127.346 277.594 132.763 272.177 132.763 265.545C132.763 258.914 127.346 253.478 120.714 253.478Z" fill="black"/>
<path d="M120.714 108.609C114.064 108.609 108.666 114.026 108.666 120.676C108.666 127.327 114.083 132.725 120.714 132.725C127.346 132.725 132.763 127.308 132.763 120.676C132.763 114.045 127.346 108.609 120.714 108.609Z" fill="black"/>
<path d="M84.4536 217.236C77.8029 217.236 72.4053 222.653 72.4053 229.304C72.4053 235.954 77.8222 241.352 84.4536 241.352C91.085 241.352 96.502 235.935 96.502 229.304C96.502 222.672 91.085 217.236 84.4536 217.236Z" fill="black"/>
<path d="M48.2329 217.236C41.5822 217.236 36.1846 222.653 36.1846 229.304C36.1846 235.954 41.6015 241.352 48.2329 241.352C54.8643 241.352 60.2813 235.935 60.2813 229.304C60.2813 222.672 54.8643 217.236 48.2329 217.236Z" fill="black"/>
<path d="M12.0483 217.236C5.39766 217.236 0 222.653 0 229.304C0 235.954 5.41694 241.352 12.0483 241.352C18.6798 241.352 24.0967 235.935 24.0967 229.304C24.0967 222.672 18.6798 217.236 12.0483 217.236Z" fill="black"/>
<path d="M84.4536 181.053C77.8029 181.053 72.4053 186.47 72.4053 193.121C72.4053 199.771 77.8222 205.169 84.4536 205.169C91.085 205.169 96.502 199.752 96.502 193.121C96.502 186.489 91.085 181.053 84.4536 181.053Z" fill="black"/>
<path d="M48.2329 181.053C41.5822 181.053 36.1846 186.47 36.1846 193.121C36.1846 199.771 41.6015 205.169 48.2329 205.169C54.8643 205.169 60.2813 199.752 60.2813 193.121C60.2813 186.489 54.8643 181.053 48.2329 181.053Z" fill="black"/>
<path d="M12.0483 181.053C5.39766 181.053 0 186.47 0 193.121C0 199.771 5.41694 205.169 12.0483 205.169C18.6798 205.169 24.0967 199.752 24.0967 193.121C24.0967 186.489 18.6798 181.053 12.0483 181.053Z" fill="black"/>
<path d="M337.952 253.478C331.301 253.478 325.903 258.895 325.903 265.545C325.903 272.196 331.32 277.594 337.952 277.594C344.583 277.594 350 272.177 350 265.545C350 258.914 344.583 253.478 337.952 253.478Z" fill="black"/>
<path d="M301.748 253.478C295.097 253.478 289.699 258.895 289.699 265.545C289.699 272.196 295.116 277.594 301.748 277.594C308.379 277.594 313.796 272.177 313.796 265.545C313.796 258.914 308.379 253.478 301.748 253.478Z" fill="black"/>
<path d="M265.565 253.478C258.915 253.478 253.517 258.895 253.517 265.545C253.517 272.196 258.934 277.594 265.565 277.594C272.197 277.594 277.614 272.177 277.614 265.545C277.614 258.914 272.197 253.478 265.565 253.478Z" fill="black"/>
<path d="M337.952 217.236C331.301 217.236 325.903 222.653 325.903 229.304C325.903 235.954 331.32 241.352 337.952 241.352C344.583 241.352 350 235.935 350 229.304C350 222.672 344.583 217.236 337.952 217.236Z" fill="black"/>
<path d="M301.748 217.236C295.097 217.236 289.699 222.653 289.699 229.304C289.699 235.954 295.116 241.352 301.748 241.352C308.379 241.352 313.796 235.935 313.796 229.304C313.796 222.672 308.379 217.236 301.748 217.236Z" fill="black"/>
<path d="M265.565 217.236C258.915 217.236 253.517 222.653 253.517 229.304C253.517 235.954 258.934 241.352 265.565 241.352C272.197 241.352 277.614 235.935 277.614 229.304C277.614 222.672 272.197 217.236 265.565 217.236Z" fill="black"/>
<path d="M337.952 181.053C331.301 181.053 325.903 186.47 325.903 193.121C325.903 199.771 331.32 205.169 337.952 205.169C344.583 205.169 350 199.752 350 193.121C350 186.489 344.583 181.053 337.952 181.053Z" fill="black"/>
<path d="M301.748 181.053C295.097 181.053 289.699 186.47 289.699 193.121C289.699 199.771 295.116 205.169 301.748 205.169C308.379 205.169 313.796 199.752 313.796 193.121C313.796 186.489 308.379 181.053 301.748 181.053Z" fill="black"/>
<path d="M265.565 181.053C258.915 181.053 253.517 186.47 253.517 193.121C253.517 199.771 258.934 205.169 265.565 205.169C272.197 205.169 277.614 199.752 277.614 193.121C277.614 186.489 272.197 181.053 265.565 181.053Z" fill="black"/>
<path d="M84.4536 144.81C77.8029 144.81 72.4053 150.227 72.4053 156.878C72.4053 163.529 77.8222 168.926 84.4536 168.926C91.085 168.926 96.502 163.509 96.502 156.878C96.502 150.246 91.085 144.81 84.4536 144.81Z" fill="black"/>
<path d="M48.2329 144.81C41.5822 144.81 36.1846 150.227 36.1846 156.878C36.1846 163.529 41.6015 168.926 48.2329 168.926C54.8643 168.926 60.2813 163.509 60.2813 156.878C60.2813 150.246 54.8643 144.81 48.2329 144.81Z" fill="black"/>
<path d="M12.0483 144.81C5.39766 144.81 0 150.227 0 156.878C0 163.529 5.41694 168.926 12.0483 168.926C18.6798 168.926 24.0967 163.509 24.0967 156.878C24.0967 150.246 18.6798 144.81 12.0483 144.81Z" fill="black"/>
<path d="M337.952 144.81C331.301 144.81 325.903 150.227 325.903 156.878C325.903 163.529 331.32 168.926 337.952 168.926C344.583 168.926 350 163.509 350 156.878C350 150.246 344.583 144.81 337.952 144.81Z" fill="black"/>
<path d="M301.748 144.81C295.097 144.81 289.699 150.227 289.699 156.878C289.699 163.529 295.116 168.926 301.748 168.926C308.379 168.926 313.796 163.509 313.796 156.878C313.796 150.246 308.379 144.81 301.748 144.81Z" fill="black"/>
<path d="M265.565 144.81C258.915 144.81 253.517 150.227 253.517 156.878C253.517 163.529 258.934 168.926 265.565 168.926C272.197 168.926 277.614 163.509 277.614 156.878C277.614 150.246 272.197 144.81 265.565 144.81Z" fill="black"/>
<path d="M84.4536 108.628C77.8029 108.628 72.4053 114.045 72.4053 120.696C72.4053 127.346 77.8222 132.744 84.4536 132.744C91.085 132.744 96.502 127.327 96.502 120.696C96.502 114.064 91.085 108.628 84.4536 108.628Z" fill="black"/>
<path d="M84.4536 72.4248C77.8029 72.4248 72.4053 77.8417 72.4053 84.4924C72.4053 91.1431 77.8222 96.5407 84.4536 96.5407C91.085 96.5407 96.502 91.1238 96.502 84.4924C96.502 77.861 91.085 72.4248 84.4536 72.4248Z" fill="black"/>
<path d="M48.2329 108.628C41.5822 108.628 36.1846 114.045 36.1846 120.696C36.1846 127.346 41.6015 132.744 48.2329 132.744C54.8643 132.744 60.2813 127.327 60.2813 120.696C60.2813 114.064 54.8643 108.628 48.2329 108.628Z" fill="black"/>
<path d="M301.748 108.628C295.097 108.628 289.699 114.045 289.699 120.696C289.699 127.346 295.116 132.744 301.748 132.744C308.379 132.744 313.796 127.327 313.796 120.696C313.796 114.064 308.379 108.628 301.748 108.628Z" fill="black"/>
<path d="M265.565 108.628C258.915 108.628 253.517 114.045 253.517 120.696C253.517 127.346 258.934 132.744 265.565 132.744C272.197 132.744 277.614 127.327 277.614 120.696C277.614 114.064 272.197 108.628 265.565 108.628Z" fill="black"/>
<path d="M265.565 72.4248C258.915 72.4248 253.517 77.8417 253.517 84.4924C253.517 91.1431 258.934 96.5407 265.565 96.5407C272.197 96.5407 277.614 91.1238 277.614 84.4924C277.614 77.861 272.197 72.4248 265.565 72.4248Z" fill="black"/>
<path d="M229.286 72.4248C222.635 72.4248 217.237 77.8417 217.237 84.4924C217.237 91.1431 222.654 96.5407 229.286 96.5407C235.917 96.5407 241.334 91.1238 241.334 84.4924C241.334 77.861 235.917 72.4248 229.286 72.4248Z" fill="black"/>
<path d="M193.082 72.4248C186.431 72.4248 181.033 77.8417 181.033 84.4924C181.033 91.1431 186.45 96.5407 193.082 96.5407C199.713 96.5407 205.13 91.1238 205.13 84.4924C205.13 77.861 199.713 72.4248 193.082 72.4248Z" fill="black"/>
<path d="M156.897 72.4248C150.247 72.4248 144.849 77.8417 144.849 84.4924C144.849 91.1431 150.266 96.5407 156.897 96.5407C163.529 96.5407 168.946 91.1238 168.946 84.4924C168.946 77.861 163.529 72.4248 156.897 72.4248Z" fill="black"/>
<path d="M120.677 72.4248C114.027 72.4248 108.629 77.8417 108.629 84.4924C108.629 91.1431 114.046 96.5407 120.677 96.5407C127.309 96.5407 132.726 91.1238 132.726 84.4924C132.726 77.861 127.309 72.4248 120.677 72.4248Z" fill="black"/>
<path d="M229.286 36.2039C222.635 36.2039 217.237 41.6208 217.237 48.2715C217.237 54.9222 222.654 60.3198 229.286 60.3198C235.917 60.3198 241.334 54.9029 241.334 48.2715C241.334 41.6401 235.917 36.2039 229.286 36.2039Z" fill="black"/>
<path d="M193.082 36.2039C186.431 36.2039 181.033 41.6208 181.033 48.2715C181.033 54.9222 186.45 60.3198 193.082 60.3198C199.713 60.3198 205.13 54.9029 205.13 48.2715C205.13 41.6401 199.713 36.2039 193.082 36.2039Z" fill="black"/>
<path d="M156.897 36.2039C150.247 36.2039 144.849 41.6208 144.849 48.2715C144.849 54.9222 150.266 60.3198 156.897 60.3198C163.529 60.3198 168.946 54.9029 168.946 48.2715C168.946 41.6401 163.529 36.2039 156.897 36.2039Z" fill="black"/>
<path d="M120.677 36.2039C114.027 36.2039 108.629 41.6208 108.629 48.2715C108.629 54.9222 114.046 60.3198 120.677 60.3198C127.309 60.3198 132.726 54.9029 132.726 48.2715C132.726 41.6401 127.309 36.2039 120.677 36.2039Z" fill="black"/>
<path d="M229.286 0C222.635 0 217.237 5.41695 217.237 12.0676C217.237 18.7183 222.654 24.116 229.286 24.116C235.917 24.116 241.334 18.699 241.334 12.0676C241.334 5.43622 235.917 0 229.286 0Z" fill="black"/>
<path d="M193.082 0C186.431 0 181.033 5.41695 181.033 12.0676C181.033 18.7183 186.45 24.116 193.082 24.116C199.713 24.116 205.13 18.699 205.13 12.0676C205.13 5.43622 199.713 0 193.082 0Z" fill="black"/>
<path d="M156.897 0C150.247 0 144.849 5.41695 144.849 12.0676C144.849 18.7183 150.266 24.116 156.897 24.116C163.529 24.116 168.946 18.699 168.946 12.0676C168.946 5.43622 163.529 0 156.897 0Z" fill="black"/>
<path d="M120.677 0C114.027 0 108.629 5.41695 108.629 12.0676C108.629 18.7183 114.046 24.116 120.677 24.116C127.309 24.116 132.726 18.699 132.726 12.0676C132.726 5.43622 127.309 0 120.677 0Z" fill="black"/>
</svg>
