<svg width="75" height="75" viewBox="0 0 75 75" fill="none" xmlns="http://www.w3.org/2000/svg">
<g clip-path="url(#clip0_143_446)">
<g clip-path="url(#clip1_143_446)">
<path d="M26.2184 67.5049C24.1538 67.5049 22.4746 69.1857 22.4746 71.2524C22.4746 73.319 24.1538 74.9999 26.2184 74.9999C28.2829 74.9999 29.9621 73.319 29.9621 71.2524C29.9621 69.1857 28.2829 67.5049 26.2184 67.5049Z" fill="black"/>
<path d="M14.9771 67.5049C12.9126 67.5049 11.2334 69.1857 11.2334 71.2524C11.2334 73.319 12.9126 74.9999 14.9771 74.9999C17.0417 74.9999 18.7209 73.319 18.7209 71.2524C18.7209 69.1857 17.0417 67.5049 14.9771 67.5049Z" fill="black"/>
<path d="M3.74375 67.5049C1.67917 67.5049 0 69.1857 0 71.2524C0 73.319 1.67917 74.9999 3.74375 74.9999C5.80833 74.9999 7.4875 73.319 7.4875 71.2524C7.4875 69.1857 5.80833 67.5049 3.74375 67.5049Z" fill="black"/>
<path d="M14.9938 56.2437C12.9292 56.2437 11.25 57.9245 11.25 59.9912C11.25 62.0578 12.9292 63.7386 14.9938 63.7386C17.0583 63.7386 18.7375 62.0578 18.7375 59.9912C18.7375 57.9245 17.0583 56.2437 14.9938 56.2437Z" fill="black"/>
<path d="M26.2564 45.0596C24.1919 45.0596 22.5127 46.7404 22.5127 48.8071C22.5127 50.8737 24.1919 52.5546 26.2564 52.5546C28.321 52.5546 30.0002 50.8737 30.0002 48.8071C30.0002 46.7404 28.321 45.0596 26.2564 45.0596Z" fill="black"/>
<path d="M60.0064 56.2437C57.9419 56.2437 56.2627 57.9245 56.2627 59.9912C56.2627 62.0578 57.9419 63.7386 60.0064 63.7386C62.071 63.7386 63.7502 62.0578 63.7502 59.9912C63.7502 57.9245 62.071 56.2437 60.0064 56.2437Z" fill="black"/>
<path d="M60.0064 45.0449C57.9419 45.0449 56.2627 46.7258 56.2627 48.7924C56.2627 50.8591 57.9419 52.5399 60.0064 52.5399C62.071 52.5399 63.7502 50.8591 63.7502 48.7924C63.7502 46.7258 62.071 45.0449 60.0064 45.0449Z" fill="black"/>
<path d="M60.0064 33.7983C57.9419 33.7983 56.2627 35.4792 56.2627 37.5458C56.2627 39.6125 57.9419 41.2933 60.0064 41.2933C62.071 41.2933 63.7502 39.6125 63.7502 37.5458C63.7502 35.4792 62.071 33.7983 60.0064 33.7983Z" fill="black"/>
<path d="M37.4625 67.5049C35.3979 67.5049 33.7188 69.1857 33.7188 71.2524C33.7188 73.319 35.3979 74.9999 37.4625 74.9999C39.5271 74.9999 41.2062 73.319 41.2062 71.2524C41.2062 69.1857 39.5271 67.5049 37.4625 67.5049Z" fill="black"/>
<path d="M48.7047 67.5049C46.6401 67.5049 44.9609 69.1857 44.9609 71.2524C44.9609 73.319 46.6401 74.9999 48.7047 74.9999C50.7693 74.9999 52.4484 73.319 52.4484 71.2524C52.4484 69.1857 50.7693 67.5049 48.7047 67.5049Z" fill="black"/>
<path d="M59.9459 67.4927C57.8813 67.4927 56.2021 69.1735 56.2021 71.2402C56.2021 73.3068 57.8813 74.9877 59.9459 74.9877C62.0105 74.9877 63.6896 73.3068 63.6896 71.2402C63.6896 69.1735 62.0105 67.4927 59.9459 67.4927Z" fill="black"/>
<path d="M71.2564 67.4927C69.1919 67.4927 67.5127 69.1735 67.5127 71.2402C67.5127 73.3068 69.1919 74.9877 71.2564 74.9877C73.321 74.9877 75.0002 73.3068 75.0002 71.2402C75.0002 69.1735 73.321 67.4927 71.2564 67.4927Z" fill="black"/>
<path d="M71.1754 56.3066C69.1108 56.3066 67.4316 57.9875 67.4316 60.0541C67.4316 62.1208 69.1108 63.8016 71.1754 63.8016C73.24 63.8016 74.9191 62.1208 74.9191 60.0541C74.9191 57.9875 73.24 56.3066 71.1754 56.3066Z" fill="black"/>
<path d="M48.7047 56.3066C46.6401 56.3066 44.9609 57.9875 44.9609 60.0541C44.9609 62.1208 46.6401 63.8016 48.7047 63.8016C50.7693 63.8016 52.4484 62.1208 52.4484 60.0541C52.4484 57.9875 50.7693 56.3066 48.7047 56.3066Z" fill="black"/>
<path d="M48.7047 45.0596C46.6401 45.0596 44.9609 46.7404 44.9609 48.8071C44.9609 50.8737 46.6401 52.5546 48.7047 52.5546C50.7693 52.5546 52.4484 50.8737 52.4484 48.8071C52.4484 46.7404 50.7693 45.0596 48.7047 45.0596Z" fill="black"/>
<path d="M37.5064 56.3066C35.4419 56.3066 33.7627 57.9875 33.7627 60.0541C33.7627 62.1208 35.4419 63.8016 37.5064 63.8016C39.571 63.8016 41.2502 62.1208 41.2502 60.0541C41.2502 57.9875 39.571 56.3066 37.5064 56.3066Z" fill="black"/>
<path d="M26.2184 7.49499C24.1538 7.49499 22.4746 5.81415 22.4746 3.7475C22.4746 1.68085 24.1559 0 26.2184 0C28.2809 0 29.9621 1.68085 29.9621 3.7475C29.9621 5.81415 28.2829 7.49499 26.2184 7.49499Z" fill="black"/>
<path d="M14.9771 7.49499C12.9126 7.49499 11.2334 5.81415 11.2334 3.7475C11.2334 1.68085 12.9126 0 14.9771 0C17.0417 0 18.7209 1.68085 18.7209 3.7475C18.7209 5.81415 17.0417 7.49499 14.9771 7.49499Z" fill="black"/>
<path d="M3.75645 7.49499C1.69186 7.49499 0.0126953 5.81415 0.0126953 3.7475C0.0126953 1.68085 1.69186 0 3.75645 0C5.82103 0 7.50019 1.68085 7.50019 3.7475C7.50019 5.81415 5.82103 7.49499 3.75645 7.49499Z" fill="black"/>
<path d="M14.9938 18.7562C12.9292 18.7562 11.25 17.0754 11.25 15.0087C11.25 12.9421 12.9292 11.2612 14.9938 11.2612C17.0583 11.2612 18.7375 12.9421 18.7375 15.0087C18.7375 17.0754 17.0583 18.7562 14.9938 18.7562Z" fill="black"/>
<path d="M3.74375 56.2437C1.67917 56.2437 0 57.9245 0 59.9912C0 62.0578 1.67917 63.7386 3.74375 63.7386C5.80833 63.7386 7.4875 62.0578 7.4875 59.9912C7.4875 57.9245 5.80833 56.2437 3.74375 56.2437Z" fill="black"/>
<path d="M3.74375 18.7562C1.67917 18.7562 0 17.0754 0 15.0087C0 12.9421 1.67917 11.2612 3.74375 11.2612C5.80833 11.2612 7.4875 12.9421 7.4875 15.0087C7.4875 17.0754 5.80833 18.7562 3.74375 18.7562Z" fill="black"/>
<path d="M60.0064 18.7562C57.9419 18.7562 56.2627 17.0754 56.2627 15.0087C56.2627 12.9421 57.9419 11.2612 60.0064 11.2612C62.071 11.2612 63.7502 12.9421 63.7502 15.0087C63.7502 17.0754 62.071 18.7562 60.0064 18.7562Z" fill="black"/>
<path d="M37.4625 7.49499C35.3979 7.49499 33.7188 5.81415 33.7188 3.7475C33.7188 1.68085 35.3979 0 37.4625 0C39.5271 0 41.2062 1.68085 41.2062 3.7475C41.2062 5.81415 39.5271 7.49499 37.4625 7.49499Z" fill="black"/>
<path d="M48.7047 7.49499C46.6401 7.49499 44.9609 5.81415 44.9609 3.7475C44.9609 1.68085 46.6401 0 48.7047 0C50.7693 0 52.4484 1.68085 52.4484 3.7475C52.4484 5.81415 50.7693 7.49499 48.7047 7.49499Z" fill="black"/>
<path d="M59.9459 7.50769C57.8813 7.50769 56.2021 5.82684 56.2021 3.76019C56.2021 1.69354 57.8834 0.0126953 59.9459 0.0126953C62.0084 0.0126953 63.6896 1.69354 63.6896 3.76019C63.6896 5.82684 62.0105 7.50769 59.9459 7.50769Z" fill="black"/>
<path d="M71.2438 7.50769C69.1792 7.50769 67.5 5.82684 67.5 3.76019C67.5 1.69354 69.1792 0.0126953 71.2438 0.0126953C73.3083 0.0126953 74.9875 1.69354 74.9875 3.76019C74.9875 5.82684 73.3083 7.50769 71.2438 7.50769Z" fill="black"/>
<path d="M26.2184 18.6937C24.1538 18.6937 22.4746 17.0129 22.4746 14.9462C22.4746 12.8796 24.1538 11.1987 26.2184 11.1987C28.2829 11.1987 29.9621 12.8796 29.9621 14.9462C29.9621 17.0129 28.2829 18.6937 26.2184 18.6937Z" fill="black"/>
<path d="M37.4625 18.6937C35.3979 18.6937 33.7188 17.0129 33.7188 14.9462C33.7188 12.8796 35.3979 11.1987 37.4625 11.1987C39.5271 11.1987 41.2062 12.8796 41.2062 14.9462C41.2062 17.0129 39.5271 18.6937 37.4625 18.6937Z" fill="black"/>
<path d="M48.7047 18.6937C46.6401 18.6937 44.9609 17.0129 44.9609 14.9462C44.9609 12.8796 46.6401 11.1987 48.7047 11.1987C50.7693 11.1987 52.4484 12.8796 52.4484 14.9462C52.4484 17.0129 50.7693 18.6937 48.7047 18.6937Z" fill="black"/>
<path d="M26.2184 30.0175C24.1538 30.0175 22.4746 28.3366 22.4746 26.27C22.4746 24.2033 24.1538 22.5225 26.2184 22.5225C28.2829 22.5225 29.9621 24.2033 29.9621 26.27C29.9621 28.3366 28.2829 30.0175 26.2184 30.0175Z" fill="black"/>
<path d="M26.2184 41.2787C24.1538 41.2787 22.4746 39.5978 22.4746 37.5312C22.4746 35.4645 24.1538 33.7837 26.2184 33.7837C28.2829 33.7837 29.9621 35.4645 29.9621 37.5312C29.9621 39.5978 28.2829 41.2787 26.2184 41.2787Z" fill="black"/>
<path d="M14.9938 30.0175C12.9292 30.0175 11.25 28.3366 11.25 26.27C11.25 24.2033 12.9292 22.5225 14.9938 22.5225C17.0583 22.5225 18.7375 24.2033 18.7375 26.27C18.7375 28.3366 17.0583 30.0175 14.9938 30.0175Z" fill="black"/>
<path d="M14.9938 41.2909C12.9292 41.2909 11.25 39.61 11.25 37.5434C11.25 35.4767 12.9292 33.7959 14.9938 33.7959C17.0583 33.7959 18.7375 35.4767 18.7375 37.5434C18.7375 39.61 17.0583 41.2909 14.9938 41.2909Z" fill="black"/>
<path d="M3.75645 30.0175C1.69186 30.0175 0.0126953 28.3366 0.0126953 26.27C0.0126953 24.2033 1.69186 22.5225 3.75645 22.5225C5.82103 22.5225 7.50019 24.2033 7.50019 26.27C7.50019 28.3366 5.82103 30.0175 3.75645 30.0175Z" fill="black"/>
<path d="M3.75645 44.999C1.69186 44.999 0.0126953 46.6799 0.0126953 48.7465C0.0126953 50.8132 1.69186 52.494 3.75645 52.494C5.82103 52.494 7.50019 50.8132 7.50019 48.7465C7.50019 46.6799 5.82103 44.999 3.75645 44.999Z" fill="black"/>
<path d="M71.2564 33.7524C69.1919 33.7524 67.5127 35.4333 67.5127 37.4999C67.5127 39.5666 69.1919 41.2474 71.2564 41.2474C73.321 41.2474 75.0002 39.5666 75.0002 37.4999C75.0002 35.4333 73.321 33.7524 71.2564 33.7524Z" fill="black"/>
<path d="M71.2564 44.999C69.1919 44.999 67.5127 46.6799 67.5127 48.7465C67.5127 50.8132 69.1919 52.494 71.2564 52.494C73.321 52.494 75.0002 50.8132 75.0002 48.7465C75.0002 46.6799 73.321 44.999 71.2564 44.999Z" fill="black"/>
<path d="M71.2564 30.0175C69.1919 30.0175 67.5127 28.3366 67.5127 26.27C67.5127 24.2033 69.1919 22.5225 71.2564 22.5225C73.321 22.5225 75.0002 24.2033 75.0002 26.27C75.0002 28.3366 73.321 30.0175 71.2564 30.0175Z" fill="black"/>
<path d="M37.4625 30.0175C35.3979 30.0175 33.7188 28.3366 33.7188 26.27C33.7188 24.2033 35.3979 22.5225 37.4625 22.5225C39.5271 22.5225 41.2062 24.2033 41.2062 26.27C41.2062 28.3366 39.5271 30.0175 37.4625 30.0175Z" fill="black"/>
<path d="M37.4625 41.2787C35.3979 41.2787 33.7188 39.5978 33.7188 37.5312C33.7188 35.4645 35.3979 33.7837 37.4625 33.7837C39.5271 33.7837 41.2062 35.4645 41.2062 37.5312C41.2062 39.5978 39.5271 41.2787 37.4625 41.2787Z" fill="black"/>
<path d="M48.7047 30.0175C46.6401 30.0175 44.9609 28.3366 44.9609 26.27C44.9609 24.2033 46.6401 22.5225 48.7047 22.5225C50.7693 22.5225 52.4484 24.2033 52.4484 26.27C52.4484 28.3366 50.7693 30.0175 48.7047 30.0175Z" fill="black"/>
</g>
</g>
<defs>
<clipPath id="clip0_143_446">
<rect width="75" height="75" fill="white"/>
</clipPath>
<clipPath id="clip1_143_446">
<rect width="75" height="75" fill="white"/>
</clipPath>
</defs>
</svg>
