<svg width="75" height="75" viewBox="0 0 75 75" fill="none" xmlns="http://www.w3.org/2000/svg">
<g clip-path="url(#clip0_143_798)">
<g clip-path="url(#clip1_143_798)">
<path d="M14.9903 67.5049C12.9239 67.5049 11.2432 69.1857 11.2432 71.2524C11.2432 73.319 12.9239 74.9999 14.9903 74.9999C17.0568 74.9999 18.7375 73.319 18.7375 71.2524C18.7375 69.1857 17.0568 67.5049 14.9903 67.5049Z" fill="black"/>
<path d="M3.74718 67.5049C1.68071 67.5049 0 69.1857 0 71.2524C0 73.319 1.68071 74.9999 3.74718 74.9999C5.81366 74.9999 7.49437 73.319 7.49437 71.2524C7.49437 69.1857 5.81366 67.5049 3.74718 67.5049Z" fill="black"/>
<path d="M3.74718 56.2437C1.68071 56.2437 0 57.9245 0 59.9912C0 62.0578 1.68071 63.7386 3.74718 63.7386C5.81366 63.7386 7.49437 62.0578 7.49437 59.9912C7.49437 57.9245 5.81366 56.2437 3.74718 56.2437Z" fill="black"/>
<path d="M26.2433 44.9971C24.1768 44.9971 22.4961 46.6779 22.4961 48.7446C22.4961 50.8112 24.1768 52.4921 26.2433 52.4921C28.3098 52.4921 29.9905 50.8112 29.9905 48.7446C29.9905 46.6779 28.3098 44.9971 26.2433 44.9971Z" fill="black"/>
<path d="M3.74718 44.9971C1.68071 44.9971 0 46.6779 0 48.7446C0 50.8112 1.68071 52.4921 3.74718 52.4921C5.81366 52.4921 7.49437 50.8112 7.49437 48.7446C7.49437 46.6779 5.81366 44.9971 3.74718 44.9971Z" fill="black"/>
<path d="M26.2433 33.7524C24.1768 33.7524 22.4961 35.4333 22.4961 37.4999C22.4961 39.5666 24.1768 41.2474 26.2433 41.2474C28.3098 41.2474 29.9905 39.5666 29.9905 37.4999C29.9905 35.4333 28.3098 33.7524 26.2433 33.7524Z" fill="black"/>
<path d="M37.4737 33.7524C35.4073 33.7524 33.7266 35.4333 33.7266 37.4999C33.7266 39.5666 35.4073 41.2474 37.4737 41.2474C39.5402 41.2474 41.2209 39.5666 41.2209 37.4999C41.2209 35.4333 39.5402 33.7524 37.4737 33.7524Z" fill="black"/>
<path d="M26.2433 22.4912C24.1768 22.4912 22.4961 24.1721 22.4961 26.2387C22.4961 28.3054 24.1768 29.9862 26.2433 29.9862C28.3098 29.9862 29.9905 28.3054 29.9905 26.2387C29.9905 24.1721 28.3098 22.4912 26.2433 22.4912Z" fill="black"/>
<path d="M3.74718 22.4912C1.68071 22.4912 0 24.1721 0 26.2387C0 28.3054 1.68071 29.9862 3.74718 29.9862C5.81366 29.9862 7.49437 28.3054 7.49437 26.2387C7.49437 24.1721 5.81366 22.4912 3.74718 22.4912Z" fill="black"/>
<path d="M3.74718 33.7085C1.68071 33.7085 0 35.3893 0 37.456C0 39.5226 1.68071 41.2035 3.74718 41.2035C5.81366 41.2035 7.49437 39.5226 7.49437 37.456C7.49437 35.3893 5.81366 33.7085 3.74718 33.7085Z" fill="black"/>
<path d="M14.9532 56.2437C12.8868 56.2437 11.2061 57.9245 11.2061 59.9912C11.2061 62.0578 12.8868 63.7386 14.9532 63.7386C17.0197 63.7386 18.7004 62.0578 18.7004 59.9912C18.7004 57.9245 17.0197 56.2437 14.9532 56.2437Z" fill="black"/>
<path d="M14.9532 44.9971C12.8868 44.9971 11.2061 46.6779 11.2061 48.7446C11.2061 50.8112 12.8868 52.4921 14.9532 52.4921C17.0197 52.4921 18.7004 50.8112 18.7004 48.7446C18.7004 46.6779 17.0197 44.9971 14.9532 44.9971Z" fill="black"/>
<path d="M14.9532 22.4912C12.8868 22.4912 11.2061 24.1721 11.2061 26.2387C11.2061 28.3054 12.8868 29.9862 14.9532 29.9862C17.0197 29.9862 18.7004 28.3054 18.7004 26.2387C18.7004 24.1721 17.0197 22.4912 14.9532 22.4912Z" fill="black"/>
<path d="M14.9532 33.7085C12.8868 33.7085 11.2061 35.3893 11.2061 37.456C11.2061 39.5226 12.8868 41.2035 14.9532 41.2035C17.0197 41.2035 18.7004 39.5226 18.7004 37.456C18.7004 35.3893 17.0197 33.7085 14.9532 33.7085Z" fill="black"/>
<path d="M59.9806 56.2437C57.9141 56.2437 56.2334 57.9245 56.2334 59.9912C56.2334 62.0578 57.9141 63.7386 59.9806 63.7386C62.0471 63.7386 63.7278 62.0578 63.7278 59.9912C63.7278 57.9245 62.0471 56.2437 59.9806 56.2437Z" fill="black"/>
<path d="M59.9806 44.9971C57.9141 44.9971 56.2334 46.6779 56.2334 48.7446C56.2334 50.8112 57.9141 52.4921 59.9806 52.4921C62.0471 52.4921 63.7278 50.8112 63.7278 48.7446C63.7278 46.6779 62.0471 44.9971 59.9806 44.9971Z" fill="black"/>
<path d="M59.9806 22.4912C57.9141 22.4912 56.2334 24.1721 56.2334 26.2387C56.2334 28.3054 57.9141 29.9862 59.9806 29.9862C62.0471 29.9862 63.7278 28.3054 63.7278 26.2387C63.7278 24.1721 62.0471 22.4912 59.9806 22.4912Z" fill="black"/>
<path d="M59.9806 33.7085C57.9141 33.7085 56.2334 35.3893 56.2334 37.456C56.2334 39.5226 57.9141 41.2035 59.9806 41.2035C62.0471 41.2035 63.7278 39.5226 63.7278 37.456C63.7278 35.3893 62.0471 33.7085 59.9806 33.7085Z" fill="black"/>
<path d="M26.2433 0C24.1768 0 22.4961 1.68085 22.4961 3.7475C22.4961 5.81415 24.1768 7.49499 26.2433 7.49499C28.3098 7.49499 29.9905 5.81415 29.9905 3.7475C29.9905 1.68085 28.3098 0 26.2433 0Z" fill="black"/>
<path d="M37.4972 44.9971C35.4307 44.9971 33.75 46.6779 33.75 48.7446C33.75 50.8112 35.4307 52.4921 37.4972 52.4921C39.5637 52.4921 41.2444 50.8112 41.2444 48.7446C41.2444 46.6779 39.5637 44.9971 37.4972 44.9971Z" fill="black"/>
<path d="M37.4972 22.4912C35.4307 22.4912 33.75 24.1721 33.75 26.2387C33.75 28.3054 35.4307 29.9862 37.4972 29.9862C39.5637 29.9862 41.2444 28.3054 41.2444 26.2387C41.2444 24.1721 39.5637 22.4912 37.4972 22.4912Z" fill="black"/>
<path d="M37.4972 0C35.4307 0 33.75 1.68085 33.75 3.7475C33.75 5.81415 35.4307 7.49499 37.4972 7.49499C39.5637 7.49499 41.2444 5.81415 41.2444 3.7475C41.2444 1.68085 39.5637 0 37.4972 0Z" fill="black"/>
<path d="M60.0011 67.4927C57.9346 67.4927 56.2539 69.1735 56.2539 71.2402C56.2539 73.3068 57.9346 74.9877 60.0011 74.9877C62.0676 74.9877 63.7483 73.3068 63.7483 71.2402C63.7483 69.1735 62.0676 67.4927 60.0011 67.4927Z" fill="black"/>
<path d="M71.2403 67.4927C69.1739 67.4927 67.4932 69.1735 67.4932 71.2402C67.4932 73.3068 69.1739 74.9877 71.2403 74.9877C73.3068 74.9877 74.9875 73.3068 74.9875 71.2402C74.9875 69.1735 73.3068 67.4927 71.2403 67.4927Z" fill="black"/>
<path d="M48.7491 44.9971C46.6827 44.9971 45.002 46.6779 45.002 48.7446C45.002 50.8112 46.6827 52.4921 48.7491 52.4921C50.8156 52.4921 52.4963 50.8112 52.4963 48.7446C52.4963 46.6779 50.8156 44.9971 48.7491 44.9971Z" fill="black"/>
<path d="M26.2433 56.2314C24.1768 56.2314 22.4961 57.9123 22.4961 59.9789C22.4961 62.0456 24.1768 63.7264 26.2433 63.7264C28.3098 63.7264 29.9905 62.0456 29.9905 59.9789C29.9905 57.9123 28.3098 56.2314 26.2433 56.2314Z" fill="black"/>
<path d="M37.4972 56.2314C35.4307 56.2314 33.75 57.9123 33.75 59.9789C33.75 62.0456 35.4307 63.7264 37.4972 63.7264C39.5637 63.7264 41.2444 62.0456 41.2444 59.9789C41.2444 57.9123 39.5637 56.2314 37.4972 56.2314Z" fill="black"/>
<path d="M48.7491 56.2314C46.6827 56.2314 45.002 57.9123 45.002 59.9789C45.002 62.0456 46.6827 63.7264 48.7491 63.7264C50.8156 63.7264 52.4963 62.0456 52.4963 59.9789C52.4963 57.9123 50.8156 56.2314 48.7491 56.2314Z" fill="black"/>
<path d="M48.7491 33.7524C46.6827 33.7524 45.002 35.4333 45.002 37.4999C45.002 39.5666 46.6827 41.2474 48.7491 41.2474C50.8156 41.2474 52.4963 39.5666 52.4963 37.4999C52.4963 35.4333 50.8156 33.7524 48.7491 33.7524Z" fill="black"/>
<path d="M48.7491 22.4912C46.6827 22.4912 45.002 24.1721 45.002 26.2387C45.002 28.3054 46.6827 29.9862 48.7491 29.9862C50.8156 29.9862 52.4963 28.3054 52.4963 26.2387C52.4963 24.1721 50.8156 22.4912 48.7491 22.4912Z" fill="black"/>
<path d="M71.255 56.2437C69.1885 56.2437 67.5078 57.9245 67.5078 59.9912C67.5078 62.0578 69.1885 63.7386 71.255 63.7386C73.3215 63.7386 75.0022 62.0578 75.0022 59.9912C75.0022 57.9245 73.3215 56.2437 71.255 56.2437Z" fill="black"/>
<path d="M71.255 44.9971C69.1885 44.9971 67.5078 46.6779 67.5078 48.7446C67.5078 50.8112 69.1885 52.4921 71.255 52.4921C73.3215 52.4921 75.0022 50.8112 75.0022 48.7446C75.0022 46.6779 73.3215 44.9971 71.255 44.9971Z" fill="black"/>
<path d="M71.255 33.7524C69.1885 33.7524 67.5078 35.4333 67.5078 37.4999C67.5078 39.5666 69.1885 41.2474 71.255 41.2474C73.3215 41.2474 75.0022 39.5666 75.0022 37.4999C75.0022 35.4333 73.3215 33.7524 71.255 33.7524Z" fill="black"/>
<path d="M71.255 22.4912C69.1885 22.4912 67.5078 24.1721 67.5078 26.2387C67.5078 28.3054 69.1885 29.9862 71.255 29.9862C73.3215 29.9862 75.0022 28.3054 75.0022 26.2387C75.0022 24.1721 73.3215 22.4912 71.255 22.4912Z" fill="black"/>
<path d="M48.7491 0C46.6827 0 45.002 1.68085 45.002 3.7475C45.002 5.81415 46.6827 7.49499 48.7491 7.49499C50.8156 7.49499 52.4963 5.81415 52.4963 3.7475C52.4963 1.68085 50.8156 0 48.7491 0Z" fill="black"/>
<path d="M26.2433 11.1865C24.1768 11.1865 22.4961 12.8674 22.4961 14.934C22.4961 17.0007 24.1768 18.6815 26.2433 18.6815C28.3098 18.6815 29.9905 17.0007 29.9905 14.934C29.9905 12.8674 28.3098 11.1865 26.2433 11.1865Z" fill="black"/>
<path d="M37.4972 11.1865C35.4307 11.1865 33.75 12.8674 33.75 14.934C33.75 17.0007 35.4307 18.6815 37.4972 18.6815C39.5637 18.6815 41.2444 17.0007 41.2444 14.934C41.2444 12.8674 39.5637 11.1865 37.4972 11.1865Z" fill="black"/>
<path d="M48.7491 11.1865C46.6827 11.1865 45.002 12.8674 45.002 14.934C45.002 17.0007 46.6827 18.6815 48.7491 18.6815C50.8156 18.6815 52.4963 17.0007 52.4963 14.934C52.4963 12.8674 50.8156 11.1865 48.7491 11.1865Z" fill="black"/>
</g>
</g>
<defs>
<clipPath id="clip0_143_798">
<rect width="75" height="75" fill="white"/>
</clipPath>
<clipPath id="clip1_143_798">
<rect width="75" height="75" fill="white"/>
</clipPath>
</defs>
</svg>
