<svg width="75" height="75" viewBox="0 0 75 75" fill="none" xmlns="http://www.w3.org/2000/svg">
<g clip-path="url(#clip0_143_838)">
<g clip-path="url(#clip1_143_838)">
<path d="M3.74718 7.49499C1.68071 7.49499 0 5.81415 0 3.7475C0 1.68085 1.68071 0 3.74718 0C5.81366 0 7.49437 1.68085 7.49437 3.7475C7.49437 5.81415 5.81366 7.49499 3.74718 7.49499Z" fill="black"/>
<path d="M3.74718 18.7562C1.68071 18.7562 0 17.0754 0 15.0087C0 12.9421 1.68071 11.2612 3.74718 11.2612C5.81366 11.2612 7.49437 12.9421 7.49437 15.0087C7.49437 17.0754 5.81366 18.7562 3.74718 18.7562Z" fill="black"/>
<path d="M26.2433 30.0009C24.1768 30.0009 22.4961 28.32 22.4961 26.2534C22.4961 24.1867 24.1768 22.5059 26.2433 22.5059C28.3098 22.5059 29.9905 24.1867 29.9905 26.2534C29.9905 28.32 28.3098 30.0009 26.2433 30.0009Z" fill="black"/>
<path d="M3.74718 30.0009C1.68071 30.0009 0 28.32 0 26.2534C0 24.1867 1.68071 22.5059 3.74718 22.5059C5.81366 22.5059 7.49437 24.1867 7.49437 26.2534C7.49437 28.32 5.81366 30.0009 3.74718 30.0009Z" fill="black"/>
<path d="M26.2433 41.2474C24.1768 41.2474 22.4961 39.5666 22.4961 37.4999C22.4961 35.4333 24.1768 33.7524 26.2433 33.7524C28.3098 33.7524 29.9905 35.4333 29.9905 37.4999C29.9905 39.5666 28.3098 41.2474 26.2433 41.2474Z" fill="black"/>
<path d="M37.4737 41.2474C35.4073 41.2474 33.7266 39.5666 33.7266 37.4999C33.7266 35.4333 35.4073 33.7524 37.4737 33.7524C39.5402 33.7524 41.2209 35.4333 41.2209 37.4999C41.2209 39.5666 39.5402 41.2474 37.4737 41.2474Z" fill="black"/>
<path d="M26.2433 52.5087C24.1768 52.5087 22.4961 50.8278 22.4961 48.7612C22.4961 46.6945 24.1768 45.0137 26.2433 45.0137C28.3098 45.0137 29.9905 46.6945 29.9905 48.7612C29.9905 50.8278 28.3098 52.5087 26.2433 52.5087Z" fill="black"/>
<path d="M3.74718 41.2909C1.68071 41.2909 0 39.61 0 37.5434C0 35.4767 1.68071 33.7959 3.74718 33.7959C5.81366 33.7959 7.49437 35.4767 7.49437 37.5434C7.49437 39.61 5.81366 41.2909 3.74718 41.2909Z" fill="black"/>
<path d="M14.9532 18.7562C12.8868 18.7562 11.2061 17.0754 11.2061 15.0087C11.2061 12.9421 12.8868 11.2612 14.9532 11.2612C17.0197 11.2612 18.7004 12.9421 18.7004 15.0087C18.7004 17.0754 17.0197 18.7562 14.9532 18.7562Z" fill="black"/>
<path d="M14.9532 30.0009C12.8868 30.0009 11.2061 28.32 11.2061 26.2534C11.2061 24.1867 12.8868 22.5059 14.9532 22.5059C17.0197 22.5059 18.7004 24.1867 18.7004 26.2534C18.7004 28.32 17.0197 30.0009 14.9532 30.0009Z" fill="black"/>
<path d="M14.9532 52.5087C12.8868 52.5087 11.2061 50.8278 11.2061 48.7612C11.2061 46.6945 12.8868 45.0137 14.9532 45.0137C17.0197 45.0137 18.7004 46.6945 18.7004 48.7612C18.7004 50.8278 17.0197 52.5087 14.9532 52.5087Z" fill="black"/>
<path d="M14.9532 41.2909C12.8868 41.2909 11.2061 39.61 11.2061 37.5434C11.2061 35.4767 12.8868 33.7959 14.9532 33.7959C17.0197 33.7959 18.7004 35.4767 18.7004 37.5434C18.7004 39.61 17.0197 41.2909 14.9532 41.2909Z" fill="black"/>
<path d="M59.9806 18.7562C57.9141 18.7562 56.2334 17.0754 56.2334 15.0087C56.2334 12.9421 57.9141 11.2612 59.9806 11.2612C62.0471 11.2612 63.7278 12.9421 63.7278 15.0087C63.7278 17.0754 62.0471 18.7562 59.9806 18.7562Z" fill="black"/>
<path d="M59.9806 30.0009C57.9141 30.0009 56.2334 28.32 56.2334 26.2534C56.2334 24.1867 57.9141 22.5059 59.9806 22.5059C62.0471 22.5059 63.7278 24.1867 63.7278 26.2534C63.7278 28.32 62.0471 30.0009 59.9806 30.0009Z" fill="black"/>
<path d="M59.9806 52.5087C57.9141 52.5087 56.2334 50.8278 56.2334 48.7612C56.2334 46.6945 57.9141 45.0137 59.9806 45.0137C62.0471 45.0137 63.7278 46.6945 63.7278 48.7612C63.7278 50.8278 62.0471 52.5087 59.9806 52.5087Z" fill="black"/>
<path d="M59.9806 41.2909C57.9141 41.2909 56.2334 39.61 56.2334 37.5434C56.2334 35.4767 57.9141 33.7959 59.9806 33.7959C62.0471 33.7959 63.7278 35.4767 63.7278 37.5434C63.7278 39.61 62.0471 41.2909 59.9806 41.2909Z" fill="black"/>
<path d="M37.4972 30.0009C35.4307 30.0009 33.75 28.32 33.75 26.2534C33.75 24.1867 35.4307 22.5059 37.4972 22.5059C39.5637 22.5059 41.2444 24.1867 41.2444 26.2534C41.2444 28.32 39.5637 30.0009 37.4972 30.0009Z" fill="black"/>
<path d="M37.4972 52.5087C35.4307 52.5087 33.75 50.8278 33.75 48.7612C33.75 46.6945 35.4307 45.0137 37.4972 45.0137C39.5637 45.0137 41.2444 46.6945 41.2444 48.7612C41.2444 50.8278 39.5637 52.5087 37.4972 52.5087Z" fill="black"/>
<path d="M37.4972 74.9999C35.4307 74.9999 33.75 73.319 33.75 71.2524C33.75 69.1857 35.4307 67.5049 37.4972 67.5049C39.5637 67.5049 41.2444 69.1857 41.2444 71.2524C41.2444 73.319 39.5637 74.9999 37.4972 74.9999Z" fill="black"/>
<path d="M71.2403 7.50769C69.1739 7.50769 67.4932 5.82684 67.4932 3.76019C67.4932 1.69354 69.1739 0.0126953 71.2403 0.0126953C73.3068 0.0126953 74.9875 1.69354 74.9875 3.76019C74.9875 5.82684 73.3068 7.50769 71.2403 7.50769Z" fill="black"/>
<path d="M48.7491 30.0009C46.6827 30.0009 45.002 28.32 45.002 26.2534C45.002 24.1867 46.6827 22.5059 48.7491 22.5059C50.8156 22.5059 52.4963 24.1867 52.4963 26.2534C52.4963 28.32 50.8156 30.0009 48.7491 30.0009Z" fill="black"/>
<path d="M48.7491 41.2474C46.6827 41.2474 45.002 39.5666 45.002 37.4999C45.002 35.4333 46.6827 33.7524 48.7491 33.7524C50.8156 33.7524 52.4963 35.4333 52.4963 37.4999C52.4963 39.5666 50.8156 41.2474 48.7491 41.2474Z" fill="black"/>
<path d="M48.7491 52.5087C46.6827 52.5087 45.002 50.8278 45.002 48.7612C45.002 46.6945 46.6827 45.0137 48.7491 45.0137C50.8156 45.0137 52.4963 46.6945 52.4963 48.7612C52.4963 50.8278 50.8156 52.5087 48.7491 52.5087Z" fill="black"/>
<path d="M71.255 18.7562C69.1885 18.7562 67.5078 17.0754 67.5078 15.0087C67.5078 12.9421 69.1885 11.2612 71.255 11.2612C73.3215 11.2612 75.0022 12.9421 75.0022 15.0087C75.0022 17.0754 73.3215 18.7562 71.255 18.7562Z" fill="black"/>
<path d="M71.255 30.0009C69.1885 30.0009 67.5078 28.32 67.5078 26.2534C67.5078 24.1867 69.1885 22.5059 71.255 22.5059C73.3215 22.5059 75.0022 24.1867 75.0022 26.2534C75.0022 28.32 73.3215 30.0009 71.255 30.0009Z" fill="black"/>
<path d="M71.255 41.2474C69.1885 41.2474 67.5078 39.5666 67.5078 37.4999C67.5078 35.4333 69.1885 33.7524 71.255 33.7524C73.3215 33.7524 75.0022 35.4333 75.0022 37.4999C75.0022 39.5666 73.3215 41.2474 71.255 41.2474Z" fill="black"/>
<path d="M26.2433 63.8138C24.1768 63.8138 22.4961 62.133 22.4961 60.0663C22.4961 57.9997 24.1768 56.3188 26.2433 56.3188C28.3098 56.3188 29.9905 57.9997 29.9905 60.0663C29.9905 62.133 28.3098 63.8138 26.2433 63.8138Z" fill="black"/>
<path d="M37.4972 63.8138C35.4307 63.8138 33.75 62.133 33.75 60.0663C33.75 57.9997 35.4307 56.3188 37.4972 56.3188C39.5637 56.3188 41.2444 57.9997 41.2444 60.0663C41.2444 62.133 39.5637 63.8138 37.4972 63.8138Z" fill="black"/>
<path d="M48.7491 63.8138C46.6827 63.8138 45.002 62.133 45.002 60.0663C45.002 57.9997 46.6827 56.3188 48.7491 56.3188C50.8156 56.3188 52.4963 57.9997 52.4963 60.0663C52.4963 62.133 50.8156 63.8138 48.7491 63.8138Z" fill="black"/>
</g>
</g>
<defs>
<clipPath id="clip0_143_838">
<rect width="75" height="75" fill="white"/>
</clipPath>
<clipPath id="clip1_143_838">
<rect width="75" height="75" fill="white"/>
</clipPath>
</defs>
</svg>
