<svg width="75" height="75" viewBox="0 0 75 75" fill="none" xmlns="http://www.w3.org/2000/svg">
<g clip-path="url(#clip0_143_869)">
<g clip-path="url(#clip1_143_869)">
<path d="M26.2433 67.5049C24.1768 67.5049 22.4961 69.1857 22.4961 71.2524C22.4961 73.319 24.1768 74.9999 26.2433 74.9999C28.3098 74.9999 29.9905 73.319 29.9905 71.2524C29.9905 69.1857 28.3098 67.5049 26.2433 67.5049Z" fill="black"/>
<path d="M14.9903 67.5049C12.9239 67.5049 11.2432 69.1857 11.2432 71.2524C11.2432 73.319 12.9239 74.9999 14.9903 74.9999C17.0568 74.9999 18.7375 73.319 18.7375 71.2524C18.7375 69.1857 17.0568 67.5049 14.9903 67.5049Z" fill="black"/>
<path d="M3.74718 67.5049C1.68071 67.5049 0 69.1857 0 71.2524C0 73.319 1.68071 74.9999 3.74718 74.9999C5.81366 74.9999 7.49437 73.319 7.49437 71.2524C7.49437 69.1857 5.81366 67.5049 3.74718 67.5049Z" fill="black"/>
<path d="M26.2433 56.2437C24.1768 56.2437 22.4961 57.9245 22.4961 59.9912C22.4961 62.0578 24.1768 63.7386 26.2433 63.7386C28.3098 63.7386 29.9905 62.0578 29.9905 59.9912C29.9905 57.9245 28.3098 56.2437 26.2433 56.2437Z" fill="black"/>
<path d="M15.0196 56.2437C12.9532 56.2437 11.2725 57.9245 11.2725 59.9912C11.2725 62.0578 12.9532 63.7386 15.0196 63.7386C17.0861 63.7386 18.7668 62.0578 18.7668 59.9912C18.7668 57.9245 17.0861 56.2437 15.0196 56.2437Z" fill="black"/>
<path d="M3.74718 56.2437C1.68071 56.2437 0 57.9245 0 59.9912C0 62.0578 1.68071 63.7386 3.74718 63.7386C5.81366 63.7386 7.49437 62.0578 7.49437 59.9912C7.49437 57.9245 5.81366 56.2437 3.74718 56.2437Z" fill="black"/>
<path d="M26.2433 44.9971C24.1768 44.9971 22.4961 46.6779 22.4961 48.7446C22.4961 50.8112 24.1768 52.4921 26.2433 52.4921C28.3098 52.4921 29.9905 50.8112 29.9905 48.7446C29.9905 46.6779 28.3098 44.9971 26.2433 44.9971Z" fill="black"/>
<path d="M14.9903 44.9971C12.9239 44.9971 11.2432 46.6779 11.2432 48.7446C11.2432 50.8112 12.9239 52.4921 14.9903 52.4921C17.0568 52.4921 18.7375 50.8112 18.7375 48.7446C18.7375 46.6779 17.0568 44.9971 14.9903 44.9971Z" fill="black"/>
<path d="M3.74718 44.9971C1.68071 44.9971 0 46.6779 0 48.7446C0 50.8112 1.68071 52.4921 3.74718 52.4921C5.81366 52.4921 7.49437 50.8112 7.49437 48.7446C7.49437 46.6779 5.81366 44.9971 3.74718 44.9971Z" fill="black"/>
<path d="M26.2433 33.7524C24.1768 33.7524 22.4961 35.4333 22.4961 37.4999C22.4961 39.5666 24.1768 41.2474 26.2433 41.2474C28.3098 41.2474 29.9905 39.5666 29.9905 37.4999C29.9905 35.4333 28.3098 33.7524 26.2433 33.7524Z" fill="black"/>
<path d="M37.5402 33.7524C35.4737 33.7524 33.793 35.4333 33.793 37.4999C33.793 39.5666 35.4737 41.2474 37.5402 41.2474C39.6066 41.2474 41.2873 39.5666 41.2873 37.4999C41.2873 35.4333 39.6066 33.7524 37.5402 33.7524Z" fill="black"/>
<path d="M14.9903 33.7524C12.9239 33.7524 11.2432 35.4333 11.2432 37.4999C11.2432 39.5666 12.9239 41.2474 14.9903 41.2474C17.0568 41.2474 18.7375 39.5666 18.7375 37.4999C18.7375 35.4333 17.0568 33.7524 14.9903 33.7524Z" fill="black"/>
<path d="M3.75988 33.7524C1.6934 33.7524 0.0126953 35.4333 0.0126953 37.4999C0.0126953 39.5666 1.6934 41.2474 3.75988 41.2474C5.82636 41.2474 7.50706 39.5666 7.50706 37.4999C7.50706 35.4333 5.82636 33.7524 3.75988 33.7524Z" fill="black"/>
<path d="M26.2433 22.4912C24.1768 22.4912 22.4961 24.1721 22.4961 26.2387C22.4961 28.3054 24.1768 29.9862 26.2433 29.9862C28.3098 29.9862 29.9905 28.3054 29.9905 26.2387C29.9905 24.1721 28.3098 22.4912 26.2433 22.4912Z" fill="black"/>
<path d="M3.74718 22.4912C1.68071 22.4912 0 24.1721 0 26.2387C0 28.3054 1.68071 29.9862 3.74718 29.9862C5.81366 29.9862 7.49437 28.3054 7.49437 26.2387C7.49437 24.1721 5.81366 22.4912 3.74718 22.4912Z" fill="black"/>
<path d="M14.9679 22.4912C12.9014 22.4912 11.2207 24.1721 11.2207 26.2387C11.2207 28.3054 12.9014 29.9862 14.9679 29.9862C17.0344 29.9862 18.7151 28.3054 18.7151 26.2387C18.7151 24.1721 17.0344 22.4912 14.9679 22.4912Z" fill="black"/>
<path d="M26.214 11.2446C24.1475 11.2446 22.4668 12.9255 22.4668 14.9921C22.4668 17.0588 24.1475 18.7396 26.214 18.7396C28.2805 18.7396 29.9612 17.0588 29.9612 14.9921C29.9612 12.9255 28.2805 11.2446 26.214 11.2446Z" fill="black"/>
<path d="M3.74718 11.2446C1.68071 11.2446 0 12.9255 0 14.9921C0 17.0588 1.68071 18.7396 3.74718 18.7396C5.81366 18.7396 7.49437 17.0588 7.49437 14.9921C7.49437 12.9255 5.81366 11.2446 3.74718 11.2446Z" fill="black"/>
<path d="M37.4972 67.5049C35.4307 67.5049 33.75 69.1857 33.75 71.2524C33.75 73.319 35.4307 74.9999 37.4972 74.9999C39.5637 74.9999 41.2444 73.319 41.2444 71.2524C41.2444 69.1857 39.5637 67.5049 37.4972 67.5049Z" fill="black"/>
<path d="M37.4972 56.2437C35.4307 56.2437 33.75 57.9245 33.75 59.9912C33.75 62.0578 35.4307 63.7386 37.4972 63.7386C39.5637 63.7386 41.2444 62.0578 41.2444 59.9912C41.2444 57.9245 39.5637 56.2437 37.4972 56.2437Z" fill="black"/>
<path d="M37.4972 44.9971C35.4307 44.9971 33.75 46.6779 33.75 48.7446C33.75 50.8112 35.4307 52.4921 37.4972 52.4921C39.5637 52.4921 41.2444 50.8112 41.2444 48.7446C41.2444 46.6779 39.5637 44.9971 37.4972 44.9971Z" fill="black"/>
<path d="M37.4972 22.4912C35.4307 22.4912 33.75 24.1721 33.75 26.2387C33.75 28.3054 35.4307 29.9862 37.4972 29.9862C39.5637 29.9862 41.2444 28.3054 41.2444 26.2387C41.2444 24.1721 39.5637 22.4912 37.4972 22.4912Z" fill="black"/>
<path d="M37.4972 11.2446C35.4307 11.2446 33.75 12.9255 33.75 14.9921C33.75 17.0588 35.4307 18.7396 37.4972 18.7396C39.5637 18.7396 41.2444 17.0588 41.2444 14.9921C41.2444 12.9255 39.5637 11.2446 37.4972 11.2446Z" fill="black"/>
<path d="M37.4972 0C35.4307 0 33.75 1.68085 33.75 3.7475C33.75 5.81415 35.4307 7.49499 37.4972 7.49499C39.5637 7.49499 41.2444 5.81415 41.2444 3.7475C41.2444 1.68085 39.5637 0 37.4972 0Z" fill="black"/>
<path d="M48.7491 67.5049C46.6827 67.5049 45.002 69.1857 45.002 71.2524C45.002 73.319 46.6827 74.9999 48.7491 74.9999C50.8156 74.9999 52.4963 73.319 52.4963 71.2524C52.4963 69.1857 50.8156 67.5049 48.7491 67.5049Z" fill="black"/>
<path d="M60.0011 56.2437C57.9346 56.2437 56.2539 57.9245 56.2539 59.9912C56.2539 62.0578 57.9346 63.7386 60.0011 63.7386C62.0676 63.7386 63.7483 62.0578 63.7483 59.9912C63.7483 57.9245 62.0676 56.2437 60.0011 56.2437Z" fill="black"/>
<path d="M48.7491 44.9971C46.6827 44.9971 45.002 46.6779 45.002 48.7446C45.002 50.8112 46.6827 52.4921 48.7491 52.4921C50.8156 52.4921 52.4963 50.8112 52.4963 48.7446C52.4963 46.6779 50.8156 44.9971 48.7491 44.9971Z" fill="black"/>
<path d="M48.7491 56.2437C46.6827 56.2437 45.002 57.9245 45.002 59.9912C45.002 62.0578 46.6827 63.7386 48.7491 63.7386C50.8156 63.7386 52.4963 62.0578 52.4963 59.9912C52.4963 57.9245 50.8156 56.2437 48.7491 56.2437Z" fill="black"/>
<path d="M60.0011 33.7524C57.9346 33.7524 56.2539 35.4333 56.2539 37.4999C56.2539 39.5666 57.9346 41.2474 60.0011 41.2474C62.0676 41.2474 63.7483 39.5666 63.7483 37.4999C63.7483 35.4333 62.0676 33.7524 60.0011 33.7524Z" fill="black"/>
<path d="M60.0011 44.9824C57.9346 44.9824 56.2539 46.6633 56.2539 48.7299C56.2539 50.7966 57.9346 52.4774 60.0011 52.4774C62.0676 52.4774 63.7483 50.7966 63.7483 48.7299C63.7483 46.6633 62.0676 44.9824 60.0011 44.9824Z" fill="black"/>
<path d="M48.7491 33.7524C46.6827 33.7524 45.002 35.4333 45.002 37.4999C45.002 39.5666 46.6827 41.2474 48.7491 41.2474C50.8156 41.2474 52.4963 39.5666 52.4963 37.4999C52.4963 35.4333 50.8156 33.7524 48.7491 33.7524Z" fill="black"/>
<path d="M48.7491 22.4912C46.6827 22.4912 45.002 24.1721 45.002 26.2387C45.002 28.3054 46.6827 29.9862 48.7491 29.9862C50.8156 29.9862 52.4963 28.3054 52.4963 26.2387C52.4963 24.1721 50.8156 22.4912 48.7491 22.4912Z" fill="black"/>
<path d="M60.0616 22.4912C57.9952 22.4912 56.3145 24.1721 56.3145 26.2387C56.3145 28.3054 57.9952 29.9862 60.0616 29.9862C62.1281 29.9862 63.8088 28.3054 63.8088 26.2387C63.8088 24.1721 62.1281 22.4912 60.0616 22.4912Z" fill="black"/>
<path d="M48.7491 11.2446C46.6827 11.2446 45.002 12.9255 45.002 14.9921C45.002 17.0588 46.6827 18.7396 48.7491 18.7396C50.8156 18.7396 52.4963 17.0588 52.4963 14.9921C52.4963 12.9255 50.8156 11.2446 48.7491 11.2446Z" fill="black"/>
<path d="M71.255 56.2437C69.1885 56.2437 67.5078 57.9245 67.5078 59.9912C67.5078 62.0578 69.1885 63.7386 71.255 63.7386C73.3215 63.7386 75.0022 62.0578 75.0022 59.9912C75.0022 57.9245 73.3215 56.2437 71.255 56.2437Z" fill="black"/>
<path d="M60.0011 67.4927C57.9346 67.4927 56.2539 69.1735 56.2539 71.2402C56.2539 73.3068 57.9346 74.9877 60.0011 74.9877C62.0676 74.9877 63.7483 73.3068 63.7483 71.2402C63.7483 69.1735 62.0676 67.4927 60.0011 67.4927Z" fill="black"/>
<path d="M71.255 67.4927C69.1885 67.4927 67.5078 69.1735 67.5078 71.2402C67.5078 73.3068 69.1885 74.9877 71.255 74.9877C73.3215 74.9877 75.0022 73.3068 75.0022 71.2402C75.0022 69.1735 73.3215 67.4927 71.255 67.4927Z" fill="black"/>
<path d="M71.255 44.9971C69.1885 44.9971 67.5078 46.6779 67.5078 48.7446C67.5078 50.8112 69.1885 52.4921 71.255 52.4921C73.3215 52.4921 75.0022 50.8112 75.0022 48.7446C75.0022 46.6779 73.3215 44.9971 71.255 44.9971Z" fill="black"/>
<path d="M71.255 33.7524C69.1885 33.7524 67.5078 35.4333 67.5078 37.4999C67.5078 39.5666 69.1885 41.2474 71.255 41.2474C73.3215 41.2474 75.0022 39.5666 75.0022 37.4999C75.0022 35.4333 73.3215 33.7524 71.255 33.7524Z" fill="black"/>
<path d="M71.255 22.4912C69.1885 22.4912 67.5078 24.1721 67.5078 26.2387C67.5078 28.3054 69.1885 29.9862 71.255 29.9862C73.3215 29.9862 75.0022 28.3054 75.0022 26.2387C75.0022 24.1721 73.3215 22.4912 71.255 22.4912Z" fill="black"/>
<path d="M71.255 11.2446C69.1885 11.2446 67.5078 12.9255 67.5078 14.9921C67.5078 17.0588 69.1885 18.7396 71.255 18.7396C73.3215 18.7396 75.0022 17.0588 75.0022 14.9921C75.0022 12.9255 73.3215 11.2446 71.255 11.2446Z" fill="black"/>
</g>
</g>
<defs>
<clipPath id="clip0_143_869">
<rect width="75" height="75" fill="white"/>
</clipPath>
<clipPath id="clip1_143_869">
<rect width="75" height="75" fill="white"/>
</clipPath>
</defs>
</svg>
