<svg width="75" height="74" viewBox="0 0 75 74" fill="none" xmlns="http://www.w3.org/2000/svg">
<g clip-path="url(#clip0_185_2)">
<path d="M26.2428 44.3971C24.1763 44.3971 22.4956 46.0556 22.4956 48.0947C22.4956 50.1338 24.1763 51.7922 26.2428 51.7922C28.3093 51.7922 29.99 50.1338 29.99 48.0947C29.99 46.0556 28.3093 44.3971 26.2428 44.3971Z" fill="black"/>
<path d="M14.9908 44.3971C12.9244 44.3971 11.2437 46.0556 11.2437 48.0947C11.2437 50.1338 12.9244 51.7922 14.9908 51.7922C17.0573 51.7922 18.738 50.1338 18.738 48.0947C18.738 46.0556 17.0573 44.3971 14.9908 44.3971Z" fill="black"/>
<path d="M26.2428 33.3025C24.1763 33.3025 22.4956 34.9609 22.4956 37C22.4956 39.0391 24.1763 40.6975 26.2428 40.6975C28.3093 40.6975 29.99 39.0391 29.99 37C29.99 34.9609 28.3093 33.3025 26.2428 33.3025Z" fill="black"/>
<path d="M14.9908 33.3025C12.9244 33.3025 11.2437 34.9609 11.2437 37C11.2437 39.0391 12.9244 40.6975 14.9908 40.6975C17.0573 40.6975 18.738 39.0391 18.738 37C18.738 34.9609 17.0573 33.3025 14.9908 33.3025Z" fill="black"/>
<path d="M3.74718 33.3025C1.68071 33.3025 0 34.9609 0 37C0 39.0391 1.68071 40.6975 3.74718 40.6975C5.81366 40.6975 7.49437 39.0391 7.49437 37C7.49437 34.9609 5.81366 33.3025 3.74718 33.3025Z" fill="black"/>
<path d="M3.74718 22.1913C1.68071 22.1913 0 23.8498 0 25.8889C0 27.928 1.68071 29.5864 3.74718 29.5864C5.81366 29.5864 7.49437 27.928 7.49437 25.8889C7.49437 23.8498 5.81366 22.1913 3.74718 22.1913Z" fill="black"/>
<path d="M14.9908 11.0947C12.9244 11.0947 11.2437 12.7531 11.2437 14.7922C11.2437 16.8313 12.9244 18.4897 14.9908 18.4897C17.0573 18.4897 18.738 16.8313 18.738 14.7922C18.738 12.7531 17.0573 11.0947 14.9908 11.0947Z" fill="black"/>
<path d="M14.9679 22.1913C12.9014 22.1913 11.2207 23.8498 11.2207 25.8889C11.2207 27.928 12.9014 29.5864 14.9679 29.5864C17.0344 29.5864 18.7151 27.928 18.7151 25.8889C18.7151 23.8498 17.0344 22.1913 14.9679 22.1913Z" fill="black"/>
<path d="M26.2135 11.0947C24.147 11.0947 22.4663 12.7531 22.4663 14.7922C22.4663 16.8313 24.147 18.4897 26.2135 18.4897C28.28 18.4897 29.9607 16.8313 29.9607 14.7922C29.9607 12.7531 28.28 11.0947 26.2135 11.0947Z" fill="black"/>
<path d="M3.74718 11.0947C1.68071 11.0947 0 12.7531 0 14.7922C0 16.8313 1.68071 18.4897 3.74718 18.4897C5.81366 18.4897 7.49437 16.8313 7.49437 14.7922C7.49437 12.7531 5.81366 11.0947 3.74718 11.0947Z" fill="black"/>
<path d="M26.2428 0C24.1763 0 22.4956 1.65844 22.4956 3.69753C22.4956 5.73663 24.1763 7.39506 26.2428 7.39506C28.3093 7.39506 29.99 5.73663 29.99 3.69753C29.99 1.65844 28.3093 0 26.2428 0Z" fill="black"/>
<path d="M37.4969 44.3971C35.4305 44.3971 33.7498 46.0556 33.7498 48.0947C33.7498 50.1338 35.4305 51.7922 37.4969 51.7922C39.5634 51.7922 41.2441 50.1338 41.2441 48.0947C41.2441 46.0556 39.5634 44.3971 37.4969 44.3971Z" fill="black"/>
<path d="M48.7489 44.3971C46.6824 44.3971 45.0017 46.0556 45.0017 48.0947C45.0017 50.1338 46.6824 51.7922 48.7489 51.7922C50.8154 51.7922 52.4961 50.1338 52.4961 48.0947C52.4961 46.0556 50.8154 44.3971 48.7489 44.3971Z" fill="black"/>
<path d="M37.4969 33.3025C35.4305 33.3025 33.7498 34.9609 33.7498 37C33.7498 39.0391 35.4305 40.6975 37.4969 40.6975C39.5634 40.6975 41.2441 39.0391 41.2441 37C41.2441 34.9609 39.5634 33.3025 37.4969 33.3025Z" fill="black"/>
<path d="M37.4969 22.1913C35.4305 22.1913 33.7498 23.8498 33.7498 25.8889C33.7498 27.928 35.4305 29.5864 37.4969 29.5864C39.5634 29.5864 41.2441 27.928 41.2441 25.8889C41.2441 23.8498 39.5634 22.1913 37.4969 22.1913Z" fill="black"/>
<path d="M37.4969 11.0947C35.4305 11.0947 33.7498 12.7531 33.7498 14.7922C33.7498 16.8313 35.4305 18.4897 37.4969 18.4897C39.5634 18.4897 41.2441 16.8313 41.2441 14.7922C41.2441 12.7531 39.5634 11.0947 37.4969 11.0947Z" fill="black"/>
<path d="M37.4969 0C35.4305 0 33.7498 1.65844 33.7498 3.69753C33.7498 5.73663 35.4305 7.39506 37.4969 7.39506C39.5634 7.39506 41.2441 5.73663 41.2441 3.69753C41.2441 1.65844 39.5634 0 37.4969 0Z" fill="black"/>
<path d="M14.9908 0C12.9244 0 11.2437 1.65844 11.2437 3.69753C11.2437 5.73663 12.9244 7.39506 14.9908 7.39506C17.0573 7.39506 18.738 5.73663 18.738 3.69753C18.738 1.65844 17.0573 0 14.9908 0Z" fill="black"/>
<path d="M60.0008 66.6049C57.9344 66.6049 56.2537 68.2634 56.2537 70.3025C56.2537 72.3416 57.9344 74 60.0008 74C62.0673 74 63.748 72.3416 63.748 70.3025C63.748 68.2634 62.0673 66.6049 60.0008 66.6049Z" fill="black"/>
<path d="M60.0008 55.4938C57.9344 55.4938 56.2537 57.1523 56.2537 59.1914C56.2537 61.2305 57.9344 62.8889 60.0008 62.8889C62.0673 62.8889 63.748 61.2305 63.748 59.1914C63.748 57.1523 62.0673 55.4938 60.0008 55.4938Z" fill="black"/>
<path d="M48.7489 55.4938C46.6824 55.4938 45.0017 57.1523 45.0017 59.1914C45.0017 61.2305 46.6824 62.8889 48.7489 62.8889C50.8154 62.8889 52.4961 61.2305 52.4961 59.1914C52.4961 57.1523 50.8154 55.4938 48.7489 55.4938Z" fill="black"/>
<path d="M60.0008 44.3827C57.9344 44.3827 56.2537 46.0412 56.2537 48.0803C56.2537 50.1193 57.9344 51.7778 60.0008 51.7778C62.0673 51.7778 63.748 50.1193 63.748 48.0803C63.748 46.0412 62.0673 44.3827 60.0008 44.3827Z" fill="black"/>
<path d="M48.7489 33.3025C46.6824 33.3025 45.0017 34.9609 45.0017 37C45.0017 39.0391 46.6824 40.6975 48.7489 40.6975C50.8154 40.6975 52.4961 39.0391 52.4961 37C52.4961 34.9609 50.8154 33.3025 48.7489 33.3025Z" fill="black"/>
<path d="M48.7489 22.1913C46.6824 22.1913 45.0017 23.8498 45.0017 25.8889C45.0017 27.928 46.6824 29.5864 48.7489 29.5864C50.8154 29.5864 52.4961 27.928 52.4961 25.8889C52.4961 23.8498 50.8154 22.1913 48.7489 22.1913Z" fill="black"/>
<path d="M48.7489 11.0947C46.6824 11.0947 45.0017 12.7531 45.0017 14.7922C45.0017 16.8313 46.6824 18.4897 48.7489 18.4897C50.8154 18.4897 52.4961 16.8313 52.4961 14.7922C52.4961 12.7531 50.8154 11.0947 48.7489 11.0947Z" fill="black"/>
<path d="M71.255 55.4938C69.1885 55.4938 67.5078 57.1523 67.5078 59.1914C67.5078 61.2305 69.1885 62.8889 71.255 62.8889C73.3215 62.8889 75.0022 61.2305 75.0022 59.1914C75.0022 57.1523 73.3215 55.4938 71.255 55.4938Z" fill="black"/>
</g>
<defs>
<clipPath id="clip0_185_2">
<rect width="75" height="74" fill="white"/>
</clipPath>
</defs>
</svg>
