<svg width="75" height="75" viewBox="0 0 75 75" fill="none" xmlns="http://www.w3.org/2000/svg">
<g clip-path="url(#clip0_143_955)">
<g clip-path="url(#clip1_143_955)">
<path d="M26.2433 67.5049C24.1768 67.5049 22.4961 69.1857 22.4961 71.2524C22.4961 73.319 24.1768 74.9999 26.2433 74.9999C28.3098 74.9999 29.9905 73.319 29.9905 71.2524C29.9905 69.1857 28.3098 67.5049 26.2433 67.5049Z" fill="black"/>
<path d="M14.9903 67.5049C12.9239 67.5049 11.2432 69.1857 11.2432 71.2524C11.2432 73.319 12.9239 74.9999 14.9903 74.9999C17.0568 74.9999 18.7375 73.319 18.7375 71.2524C18.7375 69.1857 17.0568 67.5049 14.9903 67.5049Z" fill="black"/>
<path d="M3.74718 67.5049C1.68071 67.5049 0 69.1857 0 71.2524C0 73.319 1.68071 74.9999 3.74718 74.9999C5.81366 74.9999 7.49437 73.319 7.49437 71.2524C7.49437 69.1857 5.81366 67.5049 3.74718 67.5049Z" fill="black"/>
<path d="M3.74718 56.2437C1.68071 56.2437 0 57.9245 0 59.9912C0 62.0578 1.68071 63.7386 3.74718 63.7386C5.81366 63.7386 7.49437 62.0578 7.49437 59.9912C7.49437 57.9245 5.81366 56.2437 3.74718 56.2437Z" fill="black"/>
<path d="M26.2433 44.9971C24.1768 44.9971 22.4961 46.6779 22.4961 48.7446C22.4961 50.8112 24.1768 52.4921 26.2433 52.4921C28.3098 52.4921 29.9905 50.8112 29.9905 48.7446C29.9905 46.6779 28.3098 44.9971 26.2433 44.9971Z" fill="black"/>
<path d="M3.74718 44.9971C1.68071 44.9971 0 46.6779 0 48.7446C0 50.8112 1.68071 52.4921 3.74718 52.4921C5.81366 52.4921 7.49437 50.8112 7.49437 48.7446C7.49437 46.6779 5.81366 44.9971 3.74718 44.9971Z" fill="black"/>
<path d="M26.2433 33.7524C24.1768 33.7524 22.4961 35.4333 22.4961 37.4999C22.4961 39.5666 24.1768 41.2474 26.2433 41.2474C28.3098 41.2474 29.9905 39.5666 29.9905 37.4999C29.9905 35.4333 28.3098 33.7524 26.2433 33.7524Z" fill="black"/>
<path d="M37.4737 33.7524C35.4073 33.7524 33.7266 35.4333 33.7266 37.4999C33.7266 39.5666 35.4073 41.2474 37.4737 41.2474C39.5402 41.2474 41.2209 39.5666 41.2209 37.4999C41.2209 35.4333 39.5402 33.7524 37.4737 33.7524Z" fill="black"/>
<path d="M26.2433 22.4912C24.1768 22.4912 22.4961 24.1721 22.4961 26.2387C22.4961 28.3054 24.1768 29.9862 26.2433 29.9862C28.3098 29.9862 29.9905 28.3054 29.9905 26.2387C29.9905 24.1721 28.3098 22.4912 26.2433 22.4912Z" fill="black"/>
<path d="M3.74718 22.4912C1.68071 22.4912 0 24.1721 0 26.2387C0 28.3054 1.68071 29.9862 3.74718 29.9862C5.81366 29.9862 7.49437 28.3054 7.49437 26.2387C7.49437 24.1721 5.81366 22.4912 3.74718 22.4912Z" fill="black"/>
<path d="M3.74718 33.7085C1.68071 33.7085 0 35.3893 0 37.456C0 39.5226 1.68071 41.2035 3.74718 41.2035C5.81366 41.2035 7.49437 39.5226 7.49437 37.456C7.49437 35.3893 5.81366 33.7085 3.74718 33.7085Z" fill="black"/>
<path d="M3.74718 11.2446C1.68071 11.2446 0 12.9255 0 14.9921C0 17.0588 1.68071 18.7396 3.74718 18.7396C5.81366 18.7396 7.49437 17.0588 7.49437 14.9921C7.49437 12.9255 5.81366 11.2446 3.74718 11.2446Z" fill="black"/>
<path d="M26.2433 0C24.1768 0 22.4961 1.68085 22.4961 3.7475C22.4961 5.81415 24.1768 7.49499 26.2433 7.49499C28.3098 7.49499 29.9905 5.81415 29.9905 3.7475C29.9905 1.68085 28.3098 0 26.2433 0Z" fill="black"/>
<path d="M37.4972 67.5049C35.4307 67.5049 33.75 69.1857 33.75 71.2524C33.75 73.319 35.4307 74.9999 37.4972 74.9999C39.5637 74.9999 41.2444 73.319 41.2444 71.2524C41.2444 69.1857 39.5637 67.5049 37.4972 67.5049Z" fill="black"/>
<path d="M37.4972 44.9971C35.4307 44.9971 33.75 46.6779 33.75 48.7446C33.75 50.8112 35.4307 52.4921 37.4972 52.4921C39.5637 52.4921 41.2444 50.8112 41.2444 48.7446C41.2444 46.6779 39.5637 44.9971 37.4972 44.9971Z" fill="black"/>
<path d="M37.4972 22.4912C35.4307 22.4912 33.75 24.1721 33.75 26.2387C33.75 28.3054 35.4307 29.9862 37.4972 29.9862C39.5637 29.9862 41.2444 28.3054 41.2444 26.2387C41.2444 24.1721 39.5637 22.4912 37.4972 22.4912Z" fill="black"/>
<path d="M37.4972 0C35.4307 0 33.75 1.68085 33.75 3.7475C33.75 5.81415 35.4307 7.49499 37.4972 7.49499C39.5637 7.49499 41.2444 5.81415 41.2444 3.7475C41.2444 1.68085 39.5637 0 37.4972 0Z" fill="black"/>
<path d="M14.9903 0C12.9239 0 11.2432 1.68085 11.2432 3.7475C11.2432 5.81415 12.9239 7.49499 14.9903 7.49499C17.0568 7.49499 18.7375 5.81415 18.7375 3.7475C18.7375 1.68085 17.0568 0 14.9903 0Z" fill="black"/>
<path d="M48.7491 67.5049C46.6827 67.5049 45.002 69.1857 45.002 71.2524C45.002 73.319 46.6827 74.9999 48.7491 74.9999C50.8156 74.9999 52.4963 73.319 52.4963 71.2524C52.4963 69.1857 50.8156 67.5049 48.7491 67.5049Z" fill="black"/>
<path d="M60.0011 67.4927C57.9346 67.4927 56.2539 69.1735 56.2539 71.2402C56.2539 73.3068 57.9346 74.9877 60.0011 74.9877C62.0676 74.9877 63.7483 73.3068 63.7483 71.2402C63.7483 69.1735 62.0676 67.4927 60.0011 67.4927Z" fill="black"/>
<path d="M71.2403 67.4927C69.1739 67.4927 67.4932 69.1735 67.4932 71.2402C67.4932 73.3068 69.1739 74.9877 71.2403 74.9877C73.3068 74.9877 74.9875 73.3068 74.9875 71.2402C74.9875 69.1735 73.3068 67.4927 71.2403 67.4927Z" fill="black"/>
<path d="M48.7491 44.9971C46.6827 44.9971 45.002 46.6779 45.002 48.7446C45.002 50.8112 46.6827 52.4921 48.7491 52.4921C50.8156 52.4921 52.4963 50.8112 52.4963 48.7446C52.4963 46.6779 50.8156 44.9971 48.7491 44.9971Z" fill="black"/>
<path d="M48.7491 33.7524C46.6827 33.7524 45.002 35.4333 45.002 37.4999C45.002 39.5666 46.6827 41.2474 48.7491 41.2474C50.8156 41.2474 52.4963 39.5666 52.4963 37.4999C52.4963 35.4333 50.8156 33.7524 48.7491 33.7524Z" fill="black"/>
<path d="M48.7491 22.4912C46.6827 22.4912 45.002 24.1721 45.002 26.2387C45.002 28.3054 46.6827 29.9862 48.7491 29.9862C50.8156 29.9862 52.4963 28.3054 52.4963 26.2387C52.4963 24.1721 50.8156 22.4912 48.7491 22.4912Z" fill="black"/>
<path d="M60.0011 0C57.9346 0 56.2539 1.68085 56.2539 3.7475C56.2539 5.81415 57.9346 7.49499 60.0011 7.49499C62.0676 7.49499 63.7483 5.81415 63.7483 3.7475C63.7483 1.68085 62.0676 0 60.0011 0Z" fill="black"/>
<path d="M71.255 0C69.1885 0 67.5078 1.68085 67.5078 3.7475C67.5078 5.81415 69.1885 7.49499 71.255 7.49499C73.3215 7.49499 75.0022 5.81415 75.0022 3.7475C75.0022 1.68085 73.3194 0 71.255 0Z" fill="black"/>
<path d="M71.255 56.2437C69.1885 56.2437 67.5078 57.9245 67.5078 59.9912C67.5078 62.0578 69.1885 63.7386 71.255 63.7386C73.3215 63.7386 75.0022 62.0578 75.0022 59.9912C75.0022 57.9245 73.3215 56.2437 71.255 56.2437Z" fill="black"/>
<path d="M71.255 44.9971C69.1885 44.9971 67.5078 46.6779 67.5078 48.7446C67.5078 50.8112 69.1885 52.4921 71.255 52.4921C73.3215 52.4921 75.0022 50.8112 75.0022 48.7446C75.0022 46.6779 73.3215 44.9971 71.255 44.9971Z" fill="black"/>
<path d="M71.255 33.7524C69.1885 33.7524 67.5078 35.4333 67.5078 37.4999C67.5078 39.5666 69.1885 41.2474 71.255 41.2474C73.3215 41.2474 75.0022 39.5666 75.0022 37.4999C75.0022 35.4333 73.3215 33.7524 71.255 33.7524Z" fill="black"/>
<path d="M71.255 22.4912C69.1885 22.4912 67.5078 24.1721 67.5078 26.2387C67.5078 28.3054 69.1885 29.9862 71.255 29.9862C73.3215 29.9862 75.0022 28.3054 75.0022 26.2387C75.0022 24.1721 73.3215 22.4912 71.255 22.4912Z" fill="black"/>
<path d="M71.255 11.2446C69.1885 11.2446 67.5078 12.9255 67.5078 14.9921C67.5078 17.0588 69.1885 18.7396 71.255 18.7396C73.3215 18.7396 75.0022 17.0588 75.0022 14.9921C75.0022 12.9255 73.3215 11.2446 71.255 11.2446Z" fill="black"/>
<path d="M48.7491 0C46.6827 0 45.002 1.68085 45.002 3.7475C45.002 5.81415 46.6827 7.49499 48.7491 7.49499C50.8156 7.49499 52.4963 5.81415 52.4963 3.7475C52.4963 1.68085 50.8156 0 48.7491 0Z" fill="black"/>
<path d="M3.74718 0C1.68071 0 0 1.68085 0 3.7475C0 5.81415 1.68071 7.49499 3.74718 7.49499C5.81366 7.49499 7.49437 5.81415 7.49437 3.7475C7.49437 1.68085 5.81366 0 3.74718 0Z" fill="black"/>
</g>
</g>
<defs>
<clipPath id="clip0_143_955">
<rect width="75" height="75" fill="white"/>
</clipPath>
<clipPath id="clip1_143_955">
<rect width="75" height="75" fill="white"/>
</clipPath>
</defs>
</svg>
