<svg width="75" height="75" viewBox="0 0 75 75" fill="none" xmlns="http://www.w3.org/2000/svg">
<g clip-path="url(#clip0_143_672)">
<path d="M27.193 66.3047C25.2092 66.3047 23.5957 67.9183 23.5957 69.9023C23.5957 71.8863 25.2092 73.4999 27.193 73.4999C29.1768 73.4999 30.7903 71.8863 30.7903 69.9023C30.7903 67.9183 29.1768 66.3047 27.193 66.3047Z" fill="black"/>
<path d="M16.3912 66.3047C14.4074 66.3047 12.7939 67.9183 12.7939 69.9023C12.7939 71.8863 14.4074 73.4999 16.3912 73.4999C18.3751 73.4999 19.9885 71.8863 19.9885 69.9023C19.9885 67.9183 18.3751 66.3047 16.3912 66.3047Z" fill="black"/>
<path d="M5.5973 66.3047C3.61348 66.3047 2 67.9183 2 69.9023C2 71.8863 3.61348 73.4999 5.5973 73.4999C7.58112 73.4999 9.19459 71.8863 9.19459 69.9023C9.19459 67.9183 7.58112 66.3047 5.5973 66.3047Z" fill="black"/>
<path d="M27.193 55.4941C25.2092 55.4941 23.5957 57.1078 23.5957 59.0917C23.5957 61.0757 25.2092 62.6893 27.193 62.6893C29.1768 62.6893 30.7903 61.0757 30.7903 59.0917C30.7903 57.1078 29.1768 55.4941 27.193 55.4941Z" fill="black"/>
<path d="M16.3912 55.4941C14.4074 55.4941 12.7939 57.1078 12.7939 59.0917C12.7939 61.0757 14.4074 62.6893 16.3912 62.6893C18.3751 62.6893 19.9885 61.0757 19.9885 59.0917C19.9885 57.1078 18.3751 55.4941 16.3912 55.4941Z" fill="black"/>
<path d="M5.5973 55.4941C3.61348 55.4941 2 57.1078 2 59.0917C2 61.0757 3.61348 62.6893 5.5973 62.6893C7.58112 62.6893 9.19459 61.0757 9.19459 59.0917C9.19459 57.1078 7.58112 55.4941 5.5973 55.4941Z" fill="black"/>
<path d="M27.193 44.6973C25.2092 44.6973 23.5957 46.3109 23.5957 48.2949C23.5957 50.2788 25.2092 51.8925 27.193 51.8925C29.1768 51.8925 30.7903 50.2788 30.7903 48.2949C30.7903 46.3109 29.1768 44.6973 27.193 44.6973Z" fill="black"/>
<path d="M16.3912 44.6973C14.4074 44.6973 12.7939 46.3109 12.7939 48.2949C12.7939 50.2788 14.4074 51.8925 16.3912 51.8925C18.3751 51.8925 19.9885 50.2788 19.9885 48.2949C19.9885 46.3109 18.3751 44.6973 16.3912 44.6973Z" fill="black"/>
<path d="M5.5973 44.6973C3.61348 44.6973 2 46.3109 2 48.2949C2 50.2788 3.61348 51.8925 5.5973 51.8925C7.58112 51.8925 9.19459 50.2788 9.19459 48.2949C9.19459 46.3109 7.58112 44.6973 5.5973 44.6973Z" fill="black"/>
<path d="M27.193 33.9023C25.2092 33.9023 23.5957 35.516 23.5957 37.4999C23.5957 39.4839 25.2092 41.0975 27.193 41.0975C29.1768 41.0975 30.7903 39.4839 30.7903 37.4999C30.7903 35.516 29.1768 33.9023 27.193 33.9023Z" fill="black"/>
<path d="M16.3912 33.9023C14.4074 33.9023 12.7939 35.516 12.7939 37.4999C12.7939 39.4839 14.4074 41.0975 16.3912 41.0975C18.3751 41.0975 19.9885 39.4839 19.9885 37.4999C19.9885 35.516 18.3751 33.9023 16.3912 33.9023Z" fill="black"/>
<path d="M27.193 23.0918C25.2092 23.0918 23.5957 24.7054 23.5957 26.6894C23.5957 28.6734 25.2092 30.287 27.193 30.287C29.1768 30.287 30.7903 28.6734 30.7903 26.6894C30.7903 24.7054 29.1768 23.0918 27.193 23.0918Z" fill="black"/>
<path d="M5.5973 23.0918C3.61348 23.0918 2 24.7054 2 26.6894C2 28.6734 3.61348 30.287 5.5973 30.287C7.58112 30.287 9.19459 28.6734 9.19459 26.6894C9.19459 24.7054 7.58112 23.0918 5.5973 23.0918Z" fill="black"/>
<path d="M16.3912 12.2949C14.4074 12.2949 12.7939 13.9085 12.7939 15.8925C12.7939 17.8765 14.4074 19.4901 16.3912 19.4901C18.3751 19.4901 19.9885 17.8765 19.9885 15.8925C19.9885 13.9085 18.3751 12.2949 16.3912 12.2949Z" fill="black"/>
<path d="M16.3688 23.0918C14.385 23.0918 12.7715 24.7054 12.7715 26.6894C12.7715 28.6734 14.385 30.287 16.3688 30.287C18.3526 30.287 19.9661 28.6734 19.9661 26.6894C19.9661 24.7054 18.3526 23.0918 16.3688 23.0918Z" fill="black"/>
<path d="M27.1647 12.2949C25.1809 12.2949 23.5674 13.9085 23.5674 15.8925C23.5674 17.8765 25.1809 19.4901 27.1647 19.4901C29.1485 19.4901 30.762 17.8765 30.762 15.8925C30.762 13.9085 29.1485 12.2949 27.1647 12.2949Z" fill="black"/>
<path d="M5.5973 12.2949C3.61348 12.2949 2 13.9085 2 15.8925C2 17.8765 3.61348 19.4901 5.5973 19.4901C7.58112 19.4901 9.19459 17.8765 9.19459 15.8925C9.19459 13.9085 7.58112 12.2949 5.5973 12.2949Z" fill="black"/>
<path d="M27.193 1.5C25.2092 1.5 23.5957 3.11361 23.5957 5.0976C23.5957 7.08158 25.2092 8.69519 27.193 8.69519C29.1768 8.69519 30.7903 7.08158 30.7903 5.0976C30.7903 3.11361 29.1768 1.5 27.193 1.5Z" fill="black"/>
<path d="M37.9967 66.3047C36.0129 66.3047 34.3994 67.9183 34.3994 69.9023C34.3994 71.8863 36.0129 73.4999 37.9967 73.4999C39.9805 73.4999 41.594 71.8863 41.594 69.9023C41.594 67.9183 39.9805 66.3047 37.9967 66.3047Z" fill="black"/>
<path d="M37.9967 55.4941C36.0129 55.4941 34.3994 57.1078 34.3994 59.0917C34.3994 61.0757 36.0129 62.6893 37.9967 62.6893C39.9805 62.6893 41.594 61.0757 41.594 59.0917C41.594 57.1078 39.9805 55.4941 37.9967 55.4941Z" fill="black"/>
<path d="M37.9967 44.6973C36.0129 44.6973 34.3994 46.3109 34.3994 48.2949C34.3994 50.2788 36.0129 51.8925 37.9967 51.8925C39.9805 51.8925 41.594 50.2788 41.594 48.2949C41.594 46.3109 39.9805 44.6973 37.9967 44.6973Z" fill="black"/>
<path d="M37.9967 23.0918C36.0129 23.0918 34.3994 24.7054 34.3994 26.6894C34.3994 28.6734 36.0129 30.287 37.9967 30.287C39.9805 30.287 41.594 28.6734 41.594 26.6894C41.594 24.7054 39.9805 23.0918 37.9967 23.0918Z" fill="black"/>
<path d="M37.9967 12.2949C36.0129 12.2949 34.3994 13.9085 34.3994 15.8925C34.3994 17.8765 36.0129 19.4901 37.9967 19.4901C39.9805 19.4901 41.594 17.8765 41.594 15.8925C41.594 13.9085 39.9805 12.2949 37.9967 12.2949Z" fill="black"/>
<path d="M16.3912 1.5C14.4074 1.5 12.7939 3.11361 12.7939 5.0976C12.7939 7.08158 14.4074 8.69519 16.3912 8.69519C18.3751 8.69519 19.9885 7.08158 19.9885 5.0976C19.9885 3.11361 18.3751 1.5 16.3912 1.5Z" fill="black"/>
<path d="M59.6012 66.3047C57.6174 66.3047 56.0039 67.9183 56.0039 69.9023C56.0039 71.8863 57.6174 73.4999 59.6012 73.4999C61.585 73.4999 63.1985 71.8863 63.1985 69.9023C63.1985 67.9183 61.585 66.3047 59.6012 66.3047Z" fill="black"/>
<path d="M48.7985 66.3047C46.8147 66.3047 45.2012 67.9183 45.2012 69.9023C45.2012 71.8863 46.8147 73.4999 48.7985 73.4999C50.7823 73.4999 52.3958 71.8863 52.3958 69.9023C52.3958 67.9183 50.7823 66.3047 48.7985 66.3047Z" fill="black"/>
<path d="M59.6012 55.4941C57.6174 55.4941 56.0039 57.1078 56.0039 59.0917C56.0039 61.0757 57.6174 62.6893 59.6012 62.6893C61.585 62.6893 63.1985 61.0757 63.1985 59.0917C63.1985 57.1078 61.585 55.4941 59.6012 55.4941Z" fill="black"/>
<path d="M48.7985 55.4941C46.8147 55.4941 45.2012 57.1078 45.2012 59.0917C45.2012 61.0757 46.8147 62.6893 48.7985 62.6893C50.7823 62.6893 52.3958 61.0757 52.3958 59.0917C52.3958 57.1078 50.7823 55.4941 48.7985 55.4941Z" fill="black"/>
<path d="M59.6012 33.9023C57.6174 33.9023 56.0039 35.516 56.0039 37.4999C56.0039 39.4839 57.6174 41.0975 59.6012 41.0975C61.585 41.0975 63.1985 39.4839 63.1985 37.4999C63.1985 35.516 61.585 33.9023 59.6012 33.9023Z" fill="black"/>
<path d="M59.6012 44.6831C57.6174 44.6831 56.0039 46.2967 56.0039 48.2807C56.0039 50.2647 57.6174 51.8783 59.6012 51.8783C61.585 51.8783 63.1985 50.2647 63.1985 48.2807C63.1985 46.2967 61.585 44.6831 59.6012 44.6831Z" fill="black"/>
<path d="M48.7985 33.9023C46.8147 33.9023 45.2012 35.516 45.2012 37.4999C45.2012 39.4839 46.8147 41.0975 48.7985 41.0975C50.7823 41.0975 52.3958 39.4839 52.3958 37.4999C52.3958 35.516 50.7823 33.9023 48.7985 33.9023Z" fill="black"/>
<path d="M59.6012 23.0918C57.6174 23.0918 56.0039 24.7054 56.0039 26.6894C56.0039 28.6734 57.6174 30.287 59.6012 30.287C61.585 30.287 63.1985 28.6734 63.1985 26.6894C63.1985 24.7054 61.585 23.0918 59.6012 23.0918Z" fill="black"/>
<path d="M70.4049 66.3047C68.4211 66.3047 66.8076 67.9183 66.8076 69.9023C66.8076 71.8863 68.4211 73.4999 70.4049 73.4999C72.3887 73.4999 74.0022 71.8863 74.0022 69.9023C74.0022 67.9183 72.3887 66.3047 70.4049 66.3047Z" fill="black"/>
<path d="M70.4049 55.4941C68.4211 55.4941 66.8076 57.1078 66.8076 59.0917C66.8076 61.0757 68.4211 62.6893 70.4049 62.6893C72.3887 62.6893 74.0022 61.0757 74.0022 59.0917C74.0022 57.1078 72.3887 55.4941 70.4049 55.4941Z" fill="black"/>
<path d="M70.4049 33.9023C68.4211 33.9023 66.8076 35.516 66.8076 37.4999C66.8076 39.4839 68.4211 41.0975 70.4049 41.0975C72.3887 41.0975 74.0022 39.4839 74.0022 37.4999C74.0022 35.516 72.3887 33.9023 70.4049 33.9023Z" fill="black"/>
</g>
<defs>
<clipPath id="clip0_143_672">
<rect width="72" height="72" fill="white" transform="translate(2 1.5)"/>
</clipPath>
</defs>
</svg>
